<svg xmlns="http://www.w3.org/2000/svg" width="15" height="15" viewBox="0 0 15 15">
  <metadata><?xpacket begin="﻿" id="W5M0MpCehiHzreSzNTczkc9d"?>
<x:xmpmeta xmlns:x="adobe:ns:meta/" x:xmptk="Adobe XMP Core 5.6-c138 79.159824, 2016/09/14-01:09:01        ">
   <rdf:RDF xmlns:rdf="http://www.w3.org/1999/02/22-rdf-syntax-ns#">
      <rdf:Description rdf:about=""/>
   </rdf:RDF>
</x:xmpmeta>
                                                                                                    
                                                                                                    
                                                                                                    
                                                                                                    
                                                                                                    
                                                                                                    
                                                                                                    
                                                                                                    
                                                                                                    
                                                                                                    
                                                                                                    
                                                                                                    
                                                                                                    
                                                                                                    
                                                                                                    
                                                                                                    
                                                                                                    
                                                                                                    
                                                                                                    
                                                                                                    
                           
<?xpacket end="w"?></metadata>
<defs>
    <style>
      .cls-1 {
        fill: #59e7ce;
        fill-rule: evenodd;
      }
    </style>
  </defs>
  <path id="ico-instagram" class="cls-1" d="M1468.86,434h-6.72a4.146,4.146,0,0,0-4.14,4.139v6.721a4.146,4.146,0,0,0,4.14,4.14h6.72a4.146,4.146,0,0,0,4.14-4.14v-6.721A4.146,4.146,0,0,0,1468.86,434Zm2.81,10.86a2.812,2.812,0,0,1-2.81,2.809h-6.72a2.812,2.812,0,0,1-2.81-2.809v-6.721a2.812,2.812,0,0,1,2.81-2.808h6.72a2.812,2.812,0,0,1,2.81,2.808v6.721h0Zm-6.17-7.225a3.865,3.865,0,1,0,3.87,3.865A3.875,3.875,0,0,0,1465.5,437.635Zm0,6.4a2.534,2.534,0,1,1,2.53-2.534A2.532,2.532,0,0,1,1465.5,444.034Zm4.03-7.528a0.973,0.973,0,0,0-.69.286,0.967,0.967,0,0,0,0,1.381,0.976,0.976,0,0,0,.69.285,0.965,0.965,0,0,0,.97-0.976A0.966,0.966,0,0,0,1469.53,436.506Z" transform="translate(-1458 -434)"/>
</svg>
