<svg xmlns="http://www.w3.org/2000/svg" width="44" height="41" viewBox="0 0 44 41">
  <metadata><?xpacket begin="﻿" id="W5M0MpCehiHzreSzNTczkc9d"?>
<x:xmpmeta xmlns:x="adobe:ns:meta/" x:xmptk="Adobe XMP Core 5.6-c138 79.159824, 2016/09/14-01:09:01        ">
   <rdf:RDF xmlns:rdf="http://www.w3.org/1999/02/22-rdf-syntax-ns#">
      <rdf:Description rdf:about=""/>
   </rdf:RDF>
</x:xmpmeta>
                                                                                                    
                                                                                                    
                                                                                                    
                                                                                                    
                                                                                                    
                                                                                                    
                                                                                                    
                                                                                                    
                                                                                                    
                                                                                                    
                                                                                                    
                                                                                                    
                                                                                                    
                                                                                                    
                                                                                                    
                                                                                                    
                                                                                                    
                                                                                                    
                                                                                                    
                                                                                                    
                           
<?xpacket end="w"?></metadata>
<defs>
    <style>
      .cls-1 {
        fill: #161616;
        fill-rule: evenodd;
        opacity: 0.2;
      }
    </style>
  </defs>
  <path id="ico-newsletter" class="cls-1" d="M1193.2,844a1.233,1.233,0,0,1,1.1,1.109v9.972h6.6a1.21,1.21,0,0,1,1.1,1.109v23.823a4.984,4.984,0,0,1-4.95,4.987h-34.1a4.984,4.984,0,0,1-4.95-4.987v-34.9a1.145,1.145,0,0,1,1.1-1.109h34.1Zm-1.1,2.216h-31.9v33.8a2.732,2.732,0,0,0,2.75,2.771h30.11a4.888,4.888,0,0,1-.96-2.771v-33.8Zm-4.4,3.325a1.216,1.216,0,0,1,1.1,1.108v7.757a1.144,1.144,0,0,1-1.1,1.108h-11a1.144,1.144,0,0,1-1.1-1.108v-7.757a1.144,1.144,0,0,1,1.1-1.108h11Zm-16.5,1.108a1.108,1.108,0,0,1,0,2.216h-6.6a1.108,1.108,0,0,1,0-2.216h6.6Zm15.4,1.108h-8.8v5.54h8.8v-5.54Zm-15.4,4.433a1.108,1.108,0,0,1,0,2.216h-6.6a1.108,1.108,0,0,1,0-2.216h6.6Zm28.6,1.107h-5.5v22.716a2.75,2.75,0,1,0,5.5,0V857.3Zm-12.1,5.541a1.109,1.109,0,0,1,0,2.217h-23.1a1.109,1.109,0,0,1,0-2.217h23.1Zm0,6.1a1.108,1.108,0,0,1,0,2.216h-23.1a1.108,1.108,0,0,1,0-2.216h23.1Zm0,6.094a1.109,1.109,0,0,1,0,2.217h-23.1a1.109,1.109,0,0,1,0-2.217h23.1Z" transform="translate(-1158 -844)"/>
</svg>
