<svg id="Calque_1" data-name="Calque 1" xmlns="http://www.w3.org/2000/svg" viewBox="0 0 64.88 24.76"><title>sid</title><path d="M51.09,24.65h.51V22l2.58-3.94h-.59l-2.24,3.46-2.23-3.46h-.59L51.09,22Zm-9.41-6.11h4v-.48H41.18v6.59h4.66v-.49H41.67v-2.6h3.86V21.1H41.67Zm-9-.48v6.59h.51V19.21l4.44,5.44h.2V18.06h-.5v5.45l-4.43-5.45Zm-6.43.48A2.68,2.68,0,0,1,29,21.28a2.7,2.7,0,0,1-2.83,2.88H24.48V18.54Zm0-.48H24v6.59H26.2a3.16,3.16,0,0,0,3.34-3.37,3.16,3.16,0,0,0-3.34-3.22m-8.12,6.59h.51V22l2.58-3.94h-.59l-2.24,3.46L16.1,18.06h-.59L18.08,22Zm-4.91-5.56A2.53,2.53,0,0,0,10.76,18c-1.08,0-2.53.43-2.5,1.83,0,1.21,1.23,1.46,2.44,1.69s2.17.42,2.16,1.41c0,1.17-1.29,1.39-2.1,1.39a2.58,2.58,0,0,1-2.25-1.2l-.45.23a3,3,0,0,0,2.7,1.43c1.1,0,2.6-.36,2.61-1.84S12,21.26,10.78,21c-1.11-.21-2-.4-2-1.24,0-1.05,1.22-1.34,2-1.34a2.13,2.13,0,0,1,2,.89Z"/><path d="M58.92,1.22A4.78,4.78,0,0,0,54.13,6a4.84,4.84,0,0,0,4.78,4.77A4.79,4.79,0,0,0,63.72,6a4.85,4.85,0,0,0-4.8-4.77m0,10.72a6,6,0,1,1,6-6,6,6,0,0,1-6,6"/><path d="M3.69,12A3.57,3.57,0,0,1,0,10.14a.33.33,0,0,1,0-.34,1,1,0,0,1,.68-.44.22.22,0,0,1,.19.09L1,9.57a2.61,2.61,0,0,0,.89.89l0,0a2.67,2.67,0,0,0,1.55.42h.37c1.78,0,2.51-.57,2.51-2,0-1.62-1.18-1.9-2.68-2.25C2,6.3.14,5.85.14,3.16.14,1.11,2.09,0,3.93,0,5.3,0,6.24.66,7.08,2.19a.19.19,0,0,1,0,.19,1.17,1.17,0,0,1-.73.43.19.19,0,0,1-.16-.07,3.25,3.25,0,0,1-.26-.4,3.24,3.24,0,0,0-.33-.49l-.06-.07a1.81,1.81,0,0,0-1.39-.71l-.28,0A2.25,2.25,0,0,0,1.39,3.28c0,1.66,1.2,1.91,2.72,2.22s3.51.73,3.51,3.34c0,2-1.43,3.11-3.93,3.11"/><path d="M14.54,12h-.78a.21.21,0,0,1-.21-.21V.23A.21.21,0,0,1,13.76,0h.78a.21.21,0,0,1,.21.21V11.75a.21.21,0,0,1-.21.21"/><path d="M29.14,12H21.93a.21.21,0,0,1-.21-.21V.23A.21.21,0,0,1,21.93,0h.76a.21.21,0,0,1,.21.21V10.84h6.24a.21.21,0,0,1,.21.21v.7a.21.21,0,0,1-.21.21"/><path d="M46.59,12h-.7a.21.21,0,0,1-.21-.21V2.07l-4.87,9.7a.22.22,0,0,1-.38,0l-4.85-9.6v9.59a.21.21,0,0,1-.21.21h-.7a.21.21,0,0,1-.21-.21V.23A.21.21,0,0,1,34.66,0h1.06a.21.21,0,0,1,.19.12l4.7,9.37L45.32.13A.21.21,0,0,1,45.51,0h1.08a.21.21,0,0,1,.21.21V11.75a.21.21,0,0,1-.21.21"/></svg>