<svg xmlns="http://www.w3.org/2000/svg" width="30" height="49" viewBox="0 0 30 49">
  <metadata><?xpacket begin="﻿" id="W5M0MpCehiHzreSzNTczkc9d"?>
<x:xmpmeta xmlns:x="adobe:ns:meta/" x:xmptk="Adobe XMP Core 5.6-c138 79.159824, 2016/09/14-01:09:01        ">
   <rdf:RDF xmlns:rdf="http://www.w3.org/1999/02/22-rdf-syntax-ns#">
      <rdf:Description rdf:about=""/>
   </rdf:RDF>
</x:xmpmeta>
                                                                                                    
                                                                                                    
                                                                                                    
                                                                                                    
                                                                                                    
                                                                                                    
                                                                                                    
                                                                                                    
                                                                                                    
                                                                                                    
                                                                                                    
                                                                                                    
                                                                                                    
                                                                                                    
                                                                                                    
                                                                                                    
                                                                                                    
                                                                                                    
                                                                                                    
                                                                                                    
                           
<?xpacket end="w"?></metadata>
<defs>
    <style>
      .cls-1 {
        fill: #d0d0d0;
        fill-rule: evenodd;
      }
    </style>
  </defs>
  <path id="ico-phone" class="cls-1" d="M555,837H535a4.965,4.965,0,0,0-5,4.9v39.2a4.965,4.965,0,0,0,5,4.9h20a4.965,4.965,0,0,0,5-4.9V841.9A4.965,4.965,0,0,0,555,837Zm-20,2.572h20a2.351,2.351,0,0,1,2.375,2.328v3.8h-24.75v-3.8A2.435,2.435,0,0,1,535,839.572Zm20,43.856H535a2.351,2.351,0,0,1-2.375-2.328V846.678H557.25V881.1A2.244,2.244,0,0,1,555,883.428Zm-10-7.6a2.451,2.451,0,1,1-2.5,2.451A2.475,2.475,0,0,1,545,875.832Zm-8.75-34.422a1.225,1.225,0,1,1-1.25,1.225A1.238,1.238,0,0,1,536.25,841.41Zm3.375,0a1.225,1.225,0,1,1-1.25,1.225A1.238,1.238,0,0,1,539.625,841.41Zm3.5,0a1.225,1.225,0,1,1-1.25,1.225A1.238,1.238,0,0,1,543.125,841.41Z" transform="translate(-530 -837)"/>
</svg>
