<svg xmlns="http://www.w3.org/2000/svg" width="20" height="15" viewBox="0 0 20 15">
  <metadata><?xpacket begin="﻿" id="W5M0MpCehiHzreSzNTczkc9d"?>
<x:xmpmeta xmlns:x="adobe:ns:meta/" x:xmptk="Adobe XMP Core 5.6-c138 79.159824, 2016/09/14-01:09:01        ">
   <rdf:RDF xmlns:rdf="http://www.w3.org/1999/02/22-rdf-syntax-ns#">
      <rdf:Description rdf:about=""/>
   </rdf:RDF>
</x:xmpmeta>
                                                                                                    
                                                                                                    
                                                                                                    
                                                                                                    
                                                                                                    
                                                                                                    
                                                                                                    
                                                                                                    
                                                                                                    
                                                                                                    
                                                                                                    
                                                                                                    
                                                                                                    
                                                                                                    
                                                                                                    
                                                                                                    
                                                                                                    
                                                                                                    
                                                                                                    
                                                                                                    
                           
<?xpacket end="w"?></metadata>
<defs>
    <style>
      .cls-1 {
        fill: #161616;
        fill-rule: evenodd;
      }
    </style>
  </defs>
  <path id="ico-twitter" class="cls-1" d="M1472.72,318.671a2.418,2.418,0,0,0,2.18-1.41,3.327,3.327,0,0,1-2.36.285c-0.03-.178-0.07-0.346-0.11-0.5-0.53-2.115-2.34-3.818-4.23-3.612,0.15-.067.3-0.13,0.46-0.186,0.21-.082,1.43-0.3,1.24-0.77-0.16-.414-1.66.314-1.94,0.408a1.5,1.5,0,0,0,1.05-.88,2.867,2.867,0,0,0-1.56.806,1.151,1.151,0,0,0,.3-0.646c-1.52,1.057-2.41,3.189-3.13,5.256a7.433,7.433,0,0,0-1.51-1.324,38.118,38.118,0,0,0-5.13-2.456,2.994,2.994,0,0,0,1.71,2.735,3.851,3.851,0,0,0-1.23.16,2.613,2.613,0,0,0,2.24,2.167,1.752,1.752,0,0,0-1.37.589,2.277,2.277,0,0,0,2.46,1.312c-1.53.72-.63,2.052,0.62,1.853a5,5,0,0,1-7.41.216c5.03,7.464,15.97,4.414,17.6-2.775a2.93,2.93,0,0,0,2.39-.98A4.519,4.519,0,0,1,1472.72,318.671Z" transform="translate(-1455 -312)"/>
</svg>
