<?xml version="1.0" encoding="utf-8"?>
<!-- Generator: Adobe Illustrator 23.0.1, SVG Export Plug-In . SVG Version: 6.00 Build 0)  -->
<svg version="1.1" id="Calque_1" xmlns="http://www.w3.org/2000/svg" xmlns:xlink="http://www.w3.org/1999/xlink" x="0px" y="0px"
	 viewBox="0 0 29 29" style="enable-background:new 0 0 29 29;" xml:space="preserve">
<style type="text/css">
	.st0{fill:#FFFFFF;}
</style>
<title>Fichier 1</title>
<path class="st0" d="M15.8,14.5l13-12.9c0.4-0.3,0.4-0.9,0-1.3c0,0,0,0,0,0c-0.3-0.4-0.9-0.4-1.3,0c0,0,0,0,0,0l-12.9,13l-13-13
	c-0.3-0.4-0.9-0.4-1.3,0c0,0,0,0,0,0c-0.4,0.3-0.4,0.9,0,1.3c0,0,0,0,0,0l13,13l-13,12.9c-0.4,0.3-0.4,0.9,0,1.3c0,0,0,0,0,0
	C0.4,28.9,0.7,29,0.9,29c0.2,0,0.5-0.1,0.6-0.3l13-12.9l13,13c0.2,0.2,0.4,0.3,0.6,0.3c0.2,0,0.5-0.1,0.6-0.3c0.4-0.3,0.4-0.9,0-1.3
	c0,0,0,0,0,0L15.8,14.5z"/>
</svg>
