<?xml version="1.0" encoding="utf-8"?>
<!-- Generator: Adobe Illustrator 21.1.0, SVG Export Plug-In . SVG Version: 6.00 Build 0)  -->
<svg version="1.1" id="Calque_1" xmlns="http://www.w3.org/2000/svg" xmlns:xlink="http://www.w3.org/1999/xlink" x="0px" y="0px"
	 viewBox="0 0 15 15" style="enable-background:new 0 0 15 15;" xml:space="preserve">
<style type="text/css">
	.st0{fill:#FFED00;}
</style>
<path id="ico-instagram" class="st0" d="M10.9,0H4.1C1.9,0,0,1.9,0,4.1v6.7C0,13.1,1.9,15,4.1,15h6.7c2.3,0,4.1-1.9,4.1-4.1V4.1
	C15,1.9,13.1,0,10.9,0z M13.7,10.9c0,1.6-1.3,2.8-2.8,2.8H4.1c-1.6,0-2.8-1.3-2.8-2.8V4.1c0-1.6,1.3-2.8,2.8-2.8h6.7
	c1.6,0,2.8,1.3,2.8,2.8V10.9L13.7,10.9z M7.5,3.6c-2.1,0-3.9,1.7-3.9,3.9c0,2.1,1.7,3.9,3.9,3.9c2.1,0,3.9-1.7,3.9-3.9
	C11.4,5.4,9.6,3.6,7.5,3.6L7.5,3.6z M7.5,10C6.1,10,5,8.9,5,7.5C5,6.1,6.1,5,7.5,5S10,6.1,10,7.5c0,0,0,0,0,0C10,8.9,8.9,10,7.5,10
	L7.5,10z M11.5,2.5c-0.3,0-0.5,0.1-0.7,0.3c-0.4,0.4-0.4,1,0,1.4c0,0,0,0,0,0c0.2,0.2,0.4,0.3,0.7,0.3c0.5,0,1-0.4,1-1c0,0,0,0,0,0
	C12.5,2.9,12.1,2.5,11.5,2.5C11.5,2.5,11.5,2.5,11.5,2.5L11.5,2.5z"/>
</svg>
