<?xml version="1.0" encoding="utf-8"?>
<!-- Generator: Adobe Illustrator 21.1.0, SVG Export Plug-In . SVG Version: 6.00 Build 0)  -->
<svg version="1.1" id="Calque_1" xmlns="http://www.w3.org/2000/svg" xmlns:xlink="http://www.w3.org/1999/xlink" x="0px" y="0px"
	 viewBox="0 0 20 15" style="enable-background:new 0 0 20 15;" xml:space="preserve">
<style type="text/css">
	.st0{fill-rule:evenodd;clip-rule:evenodd;fill:#FFED00;}
</style>
<g id="ico-twitter_3_">
	<g id="ico-twitter_1_">
		<g>
			<path class="st0" d="M18.6,2.2c-0.6,0.3-1.3,0.4-1.9,0.5c0.7-0.4,1.2-1.1,1.5-1.9c-0.7,0.4-1.4,0.7-2.1,0.8
				c-0.6-0.7-1.5-1.1-2.5-1.1c-1.9,0-3.4,1.5-3.4,3.4c0,0.3,0,0.5,0.1,0.8c-2.8-0.1-5.3-1.5-7-3.5C3,1.7,2.8,2.3,2.8,2.9
				c0,1.2,0.6,2.2,1.5,2.8c-0.6,0-1.1-0.2-1.5-0.4c0,0,0,0,0,0c0,1.6,1.2,3,2.7,3.3C5.2,8.7,4.9,8.8,4.6,8.8c-0.2,0-0.4,0-0.6-0.1
				C4.4,10,5.6,11,7.1,11C6,12,4.5,12.5,2.9,12.5c-0.3,0-0.5,0-0.8,0c1.5,1,3.3,1.5,5.2,1.5c6.2,0,9.6-5.1,9.6-9.6
				c0-0.1,0-0.3,0-0.4C17.5,3.5,18.1,2.9,18.6,2.2z"/>
		</g>
	</g>
</g>
</svg>
