<svg xmlns="http://www.w3.org/2000/svg" width="11" height="15" viewBox="0 0 11 15">
  <metadata><?xpacket begin="﻿" id="W5M0MpCehiHzreSzNTczkc9d"?>
<x:xmpmeta xmlns:x="adobe:ns:meta/" x:xmptk="Adobe XMP Core 5.6-c138 79.159824, 2016/09/14-01:09:01        ">
   <rdf:RDF xmlns:rdf="http://www.w3.org/1999/02/22-rdf-syntax-ns#">
      <rdf:Description rdf:about=""/>
   </rdf:RDF>
</x:xmpmeta>
                                                                                                    
                                                                                                    
                                                                                                    
                                                                                                    
                                                                                                    
                                                                                                    
                                                                                                    
                                                                                                    
                                                                                                    
                                                                                                    
                                                                                                    
                                                                                                    
                                                                                                    
                                                                                                    
                                                                                                    
                                                                                                    
                                                                                                    
                                                                                                    
                                                                                                    
                                                                                                    
                           
<?xpacket end="w"?></metadata>
<defs>
    <style>
      .cls-1 {
        fill: #161616;
        fill-rule: evenodd;
      }
    </style>
  </defs>
  <path id="ico-pinterest" class="cls-1" d="M1469.57,557.539a5.152,5.152,0,0,0-3.75-1.539,5.683,5.683,0,0,0-4.35,1.8,5.49,5.49,0,0,0-1.47,3.69c0,1.672.65,2.955,1.74,3.433a0.584,0.584,0,0,0,.22.048,0.508,0.508,0,0,0,.48-0.421c0.03-.149.12-0.516,0.16-0.675a0.673,0.673,0,0,0-.16-0.686,2.258,2.258,0,0,1-.46-1.491,3.631,3.631,0,0,1,3.62-3.78,2.786,2.786,0,0,1,3.03,2.976,6.58,6.58,0,0,1-.65,3.021,1.944,1.944,0,0,1-1.6,1.2,1.056,1.056,0,0,1-.85-0.414,1.13,1.13,0,0,1-.17-0.906c0.09-.378.2-0.773,0.31-1.155a7.631,7.631,0,0,0,.39-1.882,1.326,1.326,0,0,0-1.28-1.5c-0.97,0-1.74,1.061-1.74,2.416a3.926,3.926,0,0,0,.24,1.353c-0.12.558-.85,3.874-0.99,4.5-0.08.365-.56,3.248,0.24,3.478,0.89,0.258,1.69-2.55,1.78-2.867,0.06-.258.29-1.234,0.43-1.834a2.627,2.627,0,0,0,1.81.749,3.919,3.919,0,0,0,3.23-1.736,7.289,7.289,0,0,0,1.22-4.263A5.082,5.082,0,0,0,1469.57,557.539Z" transform="translate(-1460 -556)"/>
</svg>
