<svg id="icon" xmlns="http://www.w3.org/2000/svg" width="34" height="37" viewBox="0 0 34 37">
  <metadata><?xpacket begin="﻿" id="W5M0MpCehiHzreSzNTczkc9d"?>
<x:xmpmeta xmlns:x="adobe:ns:meta/" x:xmptk="Adobe XMP Core 5.6-c140 79.160451, 2017/05/06-01:08:21        ">
   <rdf:RDF xmlns:rdf="http://www.w3.org/1999/02/22-rdf-syntax-ns#">
      <rdf:Description rdf:about=""/>
   </rdf:RDF>
</x:xmpmeta>
                                                                                                    
                                                                                                    
                                                                                                    
                                                                                                    
                                                                                                    
                                                                                                    
                                                                                                    
                                                                                                    
                                                                                                    
                                                                                                    
                                                                                                    
                                                                                                    
                                                                                                    
                                                                                                    
                                                                                                    
                                                                                                    
                                                                                                    
                                                                                                    
                                                                                                    
                                                                                                    
                           
<?xpacket end="w"?></metadata>
<defs>
    <style>
      .cls-1 {
        fill: #ffed00;
      }

      .cls-2 {
        fill: #161616;
        fill-rule: evenodd;
      }
    </style>
  </defs>
  <rect class="cls-1" x="4" y="7" width="22" height="7"/>
  <path id="ico-calc" class="cls-2" d="M986.934,99H959.073A3.081,3.081,0,0,0,956,102.081v30.837A3.079,3.079,0,0,0,959.066,136h27.868A3.08,3.08,0,0,0,990,132.918V102.081A3.07,3.07,0,0,0,986.934,99Zm1.029,33.926a1.024,1.024,0,0,1-1.022,1.027H959.073a1.024,1.024,0,0,1-1.022-1.027V102.081a1.024,1.024,0,0,1,1.022-1.027h27.868a1.024,1.024,0,0,1,1.022,1.027v30.845Zm-24.237-7.956a3.272,3.272,0,1,0,3.254,3.272A3.263,3.263,0,0,0,963.726,124.97Zm0,4.5a1.217,1.217,0,1,1,1.211-1.217A1.216,1.216,0,0,1,963.726,129.466Zm8.93-4.5a3.272,3.272,0,1,0,3.254,3.272A3.263,3.263,0,0,0,972.656,124.97Zm0,4.5a1.217,1.217,0,1,1,1.21-1.217A1.217,1.217,0,0,1,972.656,129.466ZM963.726,116a3.271,3.271,0,1,0,3.254,3.271A3.262,3.262,0,0,0,963.726,116Zm0,4.487a1.217,1.217,0,1,1,1.211-1.216A1.215,1.215,0,0,1,963.726,120.483Zm8.93-4.487a3.271,3.271,0,1,0,3.254,3.271A3.263,3.263,0,0,0,972.656,116Zm0,4.487a1.217,1.217,0,1,1,1.21-1.216A1.216,1.216,0,0,1,972.656,120.483Zm8.936-4.48a3.262,3.262,0,0,0-3.254,3.271v8.975a3.254,3.254,0,1,0,6.508,0v-8.975A3.267,3.267,0,0,0,981.592,116Zm1.2,12.246a1.211,1.211,0,1,1-2.421,0v-8.975a1.211,1.211,0,1,1,2.421,0v8.975Zm1.725-24.762H961.487a1.024,1.024,0,0,0-1.022,1.028v6.731a1.023,1.023,0,0,0,1.022,1.027h23.026a1.024,1.024,0,0,0,1.022-1.027v-6.731A1.019,1.019,0,0,0,984.52,103.487Zm-1.029,6.732H962.516v-4.677H983.5v4.677h-0.007Z" transform="translate(-956 -99)"/>
</svg>
