<svg xmlns="http://www.w3.org/2000/svg" width="16.91" height="20" viewBox="0 0 16.91 20">
  <metadata><?xpacket begin="﻿" id="W5M0MpCehiHzreSzNTczkc9d"?>
<x:xmpmeta xmlns:x="adobe:ns:meta/" x:xmptk="Adobe XMP Core 5.6-c138 79.159824, 2016/09/14-01:09:01        ">
   <rdf:RDF xmlns:rdf="http://www.w3.org/1999/02/22-rdf-syntax-ns#">
      <rdf:Description rdf:about=""/>
   </rdf:RDF>
</x:xmpmeta>
                                                                                                    
                                                                                                    
                                                                                                    
                                                                                                    
                                                                                                    
                                                                                                    
                                                                                                    
                                                                                                    
                                                                                                    
                                                                                                    
                                                                                                    
                                                                                                    
                                                                                                    
                                                                                                    
                                                                                                    
                                                                                                    
                                                                                                    
                                                                                                    
                                                                                                    
                                                                                                    
                           
<?xpacket end="w"?></metadata>
<defs>
    <style>
      .cls-1 {
        fill: #161616;
        fill-rule: evenodd;
      }
    </style>
  </defs>
  <path id="ico-youtube" class="cls-1" d="M1470.39,505.63h-1.11l0.01-.638a0.516,0.516,0,0,1,.52-0.515h0.07a0.525,0.525,0,0,1,.53.515Zm-4.17-1.367a0.476,0.476,0,0,0-.52.417v3.1a0.527,0.527,0,0,0,1.03,0v-3.1A0.472,0.472,0,0,0,1466.22,504.263Zm6.78-1.734v5.9a2.681,2.681,0,0,1-2.77,2.572h-11.37a2.681,2.681,0,0,1-2.77-2.572v-5.9a2.681,2.681,0,0,1,2.77-2.573h11.37A2.681,2.681,0,0,1,1473,502.529Zm-13.38,6.539-0.01-6.214h1.42v-0.92l-3.76-.006v0.905l1.17,0v6.231h1.18Zm4.22-5.288h-1.17V507.1a6.233,6.233,0,0,1,0,.805c-0.1.257-.53,0.53-0.7,0.027a6.428,6.428,0,0,1,0-.809l-0.01-3.341h-1.17l0.01,3.289c0,0.5-.01.879,0,1.05a1.064,1.064,0,0,0,.3.854,1.433,1.433,0,0,0,1.8-.593v0.686h0.94V503.78h0Zm3.76,3.8v-2.761c0-1.052-.8-1.683-1.88-0.831v-2.053h-1.17l-0.01,7.087,0.97-.014,0.09-.441C1466.83,509.683,1467.61,508.918,1467.6,507.579Zm3.68-.365-0.88,0v0.6a0.48,0.48,0,0,1-.48.471h-0.17a0.482,0.482,0,0,1-.49-0.471v-1.276h2.02V505.8a10.876,10.876,0,0,0-.06-1.407c-0.14-.99-1.55-1.147-2.26-0.64a1.288,1.288,0,0,0-.5.655,3.631,3.631,0,0,0-.15,1.167v1.646C1468.31,509.955,1471.69,509.568,1471.28,507.214Zm-4.52-8.94a0.839,0.839,0,0,0,.28.352,0.855,0.855,0,0,0,.49.131,0.746,0.746,0,0,0,.45-0.138,1.07,1.07,0,0,0,.33-0.415l-0.03.454h1.31v-5.493h-1.03v4.275a0.424,0.424,0,0,1-.43.421,0.431,0.431,0,0,1-.43-0.421v-4.275h-1.07v3.7c0,0.472.01,0.787,0.02,0.946A1.448,1.448,0,0,0,1466.76,498.274Zm-3.97-3.1a4.476,4.476,0,0,1,.13-1.236,1.347,1.347,0,0,1,.49-0.712,1.373,1.373,0,0,1,.88-0.271,1.618,1.618,0,0,1,.78.173,1.331,1.331,0,0,1,.51.451,1.674,1.674,0,0,1,.24.572,4.933,4.933,0,0,1,.06.9v1.389a7.512,7.512,0,0,1-.06,1.123,1.8,1.8,0,0,1-.25.667,1.253,1.253,0,0,1-.51.457,1.624,1.624,0,0,1-.71.147,2.036,2.036,0,0,1-.76-0.125,1,1,0,0,1-.48-0.381,1.623,1.623,0,0,1-.25-0.616,5.851,5.851,0,0,1-.07-1.083v-1.455h0Zm1.03,2.183a0.543,0.543,0,0,0,.52.565,0.55,0.55,0,0,0,.52-0.565v-2.925a0.548,0.548,0,0,0-.52-0.564,0.542,0.542,0,0,0-.52.564v2.925Zm-3.63,1.476h1.24v-4.213l1.46-3.61h-1.35l-0.78,2.682L1459.97,491h-1.34l1.56,3.619v4.211Z" transform="translate(-1456.09 -491)"/>
</svg>
