<svg width="184" height="116" viewBox="0 0 184 116" fill="none" xmlns="http://www.w3.org/2000/svg">
<path fill-rule="evenodd" clip-rule="evenodd" d="M14.8818 24.3799C17.1462 28.7559 21.0013 28.7559 23.5523 28.7559C29.4811 28.7559 32.8815 26.0264 32.8815 21.2651C32.8815 14.9678 28.4554 14.0415 24.5486 13.2246L24.5469 13.2243C20.9414 12.47 18.094 11.8744 18.094 7.89014C18.094 2.82422 22.9686 2.56787 23.9455 2.56787C24.1922 2.56787 24.4231 2.58154 24.6139 2.60645C26.7447 2.89055 27.3437 3.61146 27.9232 4.30905L27.9237 4.30957L28.07 4.48389C28.3837 4.85372 28.6199 5.26226 28.8479 5.65653L28.8512 5.66211L28.8524 5.6642L28.8524 5.66421C29.0489 6.00523 29.2342 6.32676 29.4608 6.61279C29.5186 6.68604 29.6308 6.77441 29.8337 6.77441C30.3297 6.77393 31.3017 6.19482 31.5676 5.7417C31.6969 5.52002 31.6457 5.35596 31.6036 5.27832C29.6095 1.58057 27.3729 0.00292969 24.1261 0.00292969C19.7663 0.00292969 15.1328 2.6665 15.1328 7.60156C15.1328 14.0649 19.6058 15.1401 23.5525 16.0888L23.5526 16.0889C27.1106 16.9429 29.9204 17.6187 29.9204 21.5054C29.9204 24.8506 28.1968 26.2153 23.9703 26.2153C23.6884 26.2153 23.3953 26.209 23.0927 26.1978C20.9529 26.1123 20.3073 25.729 19.4135 25.1978L19.3442 25.1562C18.2973 24.5358 17.8516 23.8989 17.2347 23.017L17.2341 23.0161L17.0345 22.7324C16.9661 22.6348 16.8321 22.52 16.582 22.52C16.0712 22.52 15.2836 23.0298 14.9612 23.5688C14.7394 23.939 14.7959 24.2134 14.8818 24.3799ZM154.577 28.7174C146.75 28.7174 140.382 22.2975 140.382 14.4064C140.382 6.48985 146.75 0.0489297 154.577 0.0489297C162.38 0.0489297 168.727 6.48985 168.727 14.4064C168.727 22.2975 162.38 28.7174 154.577 28.7174ZM154.577 2.92881C148.321 2.92881 143.23 8.07774 143.23 14.4064C143.23 20.6285 148.427 25.8839 154.577 25.8839C160.86 25.8839 165.971 20.7355 165.971 14.4064C165.971 8.18467 160.753 2.92881 154.577 2.92881ZM49.3096 28.7762H47.4605C47.1803 28.7762 46.9519 28.5452 46.9519 28.262V0.551578C46.9519 0.267398 47.1803 0.0369297 47.4605 0.0369297H49.3096C49.5902 0.0369297 49.8181 0.267398 49.8181 0.551578V28.262C49.8181 28.5452 49.5902 28.7762 49.3096 28.7762ZM66.8254 28.7762H83.9362C84.2167 28.7762 84.4447 28.5452 84.4447 28.262V26.5838C84.4447 26.3001 84.2167 26.0696 83.9362 26.0696H69.1353V0.551578C69.1353 0.267398 68.9075 0.0369297 68.6267 0.0369297H66.8254C66.5446 0.0369297 66.3169 0.267398 66.3169 0.551578V28.262C66.3169 28.5452 66.5446 28.7762 66.8254 28.7762ZM125.334 28.7762H123.675C123.395 28.7762 123.167 28.5452 123.167 28.262V4.98029L111.618 28.3001C111.441 28.6517 110.88 28.6487 110.708 28.3001L99.2054 5.20978V28.262C99.2054 28.5452 98.9774 28.7762 98.6968 28.7762H97.0374C96.7572 28.7762 96.5289 28.5452 96.5289 28.262V0.551578C96.5289 0.267398 96.7572 0.0369297 97.0374 0.0369297H99.5499C99.7432 0.0369297 99.9176 0.145816 100.004 0.320133L111.162 22.846L122.32 0.320621C122.407 0.145816 122.581 0.0369297 122.775 0.0369297H125.334C125.615 0.0369297 125.842 0.267398 125.842 0.551578V28.262C125.842 28.5452 125.615 28.7762 125.334 28.7762ZM80.4726 57.9476C80.5488 57.9228 80.6251 57.898 80.6998 57.8703C80.7359 57.9016 80.7724 57.9338 80.8084 57.966L80.7744 58.0452L80.7283 58.1532C80.6788 58.2692 80.6292 58.3855 80.5783 58.5007C80.3657 58.982 80.1529 59.4633 79.94 59.9446L79.9386 59.9477C79.5299 60.8716 79.1212 61.7956 78.7147 62.7204C77.667 65.1023 76.7389 67.5305 75.9739 70.0202C75.9095 70.2287 75.8725 70.448 75.8445 70.6648C75.8201 70.8571 75.8669 71.0378 76.0674 71.1208C76.2983 71.2165 76.4099 71.0349 76.4969 70.8845L76.5583 70.7776L76.5584 70.7774C76.7747 70.401 76.9916 70.0236 77.1626 69.6267C77.3107 69.2834 77.4423 68.9329 77.574 68.5822C77.6997 68.2476 77.8254 67.9128 77.9655 67.5842C78.7712 65.6984 79.5841 63.8166 80.4131 61.9411C81.0489 60.5017 81.7043 59.0715 82.3702 57.6462C82.5687 57.2219 82.7712 56.7985 83.2187 56.5398C84.6832 55.6926 86.1413 54.8347 87.5843 53.9514L87.647 53.913C89.1457 52.9966 90.6448 52.08 92.0239 50.9768L92.0516 50.9546C93.1952 50.0397 94.3331 49.1293 95.2953 48.0056C96.0081 47.1721 96.5474 46.2566 96.8725 45.2097C97.3681 43.6169 96.4645 41.9939 94.874 41.5627C93.1452 41.0925 91.451 41.3357 89.7765 41.8044C88.1325 42.2649 86.5211 42.8303 84.9653 43.5427C83.8096 44.0715 82.6549 44.6071 81.5288 45.1955C80.9487 45.4986 80.394 45.8511 79.8395 46.2035C79.6428 46.3286 79.446 46.4536 79.2482 46.5764C78.9986 46.7315 78.7472 46.8843 78.4957 47.0371L78.4956 47.0371C77.8306 47.4413 77.1653 47.8456 76.5313 48.2942C74.9109 49.4397 73.3678 50.6877 71.9202 52.0534C71.0949 52.8317 70.3389 53.6726 69.7518 54.6521C69.5757 54.945 69.4468 55.2736 69.338 55.6008C69.2182 55.9607 69.396 56.2468 69.6623 56.4699C69.9278 56.6926 70.1578 56.6042 70.1704 56.2541C70.1869 55.8244 70.3636 55.4846 70.6067 55.153C71.3125 54.1916 72.1195 53.3244 72.991 52.5183C75.249 50.4304 77.7024 48.6242 80.3816 47.1179C82.1915 46.1008 84.0334 45.1599 85.9454 44.362C88.1475 43.4431 90.406 42.7126 92.8011 42.5319C93.673 42.4655 94.5394 42.5725 95.3631 42.8903C95.9124 43.1023 96.1077 43.5427 95.9837 44.1223C95.8078 44.9499 95.4127 45.6672 94.8958 46.3132C93.8654 47.6023 92.6915 48.7317 91.3579 49.7092C89.1803 51.3039 86.9189 52.759 84.5893 54.1091C84.5301 54.1432 84.4635 54.1638 84.3708 54.1926C84.3187 54.2088 84.2583 54.2275 84.1863 54.2526C84.3274 53.9853 84.4646 53.728 84.5984 53.4773L84.6019 53.4707L84.6024 53.4697L84.6028 53.469C84.906 52.9008 85.1914 52.366 85.4627 51.8239C85.7351 51.2794 85.9896 50.7254 86.2439 50.1716L86.244 50.1713L86.3397 49.9631C86.3814 49.8724 86.4232 49.7817 86.4651 49.6911C86.6046 49.3899 86.6027 49.0852 86.4315 48.7942C86.3081 48.5852 86.1637 48.3835 85.8947 48.383C85.6627 48.3813 85.5835 48.5546 85.5041 48.7282L85.4877 48.764C85.4832 48.7738 85.4786 48.7835 85.474 48.7932C85.4705 48.8005 85.4669 48.8079 85.4633 48.8151L85.2784 49.1883L85.278 49.1892C84.9259 49.9003 84.5737 50.6115 84.2081 51.3156C83.9022 51.9045 83.592 52.491 83.2819 53.0775C82.8823 53.8331 82.4827 54.5887 82.0922 55.3493C81.9561 55.6145 81.7657 55.7795 81.518 55.9035C81.0795 56.1238 80.6421 56.3461 80.2046 56.5684L80.2028 56.5693L80.2024 56.5696L80.2023 56.5696C79.1653 57.0966 78.1285 57.6236 77.079 58.1223C75.7826 58.7395 74.4608 59.3039 73.0166 59.487C72.8941 59.5026 72.7014 59.6154 72.6895 59.7038C72.6713 59.843 72.7393 60.0383 72.8398 60.1408C73.1306 60.4401 73.5276 60.4738 73.9078 60.4196C74.3902 60.3523 74.8766 60.2605 75.3414 60.115C76.9555 59.6091 78.5097 58.9558 79.9948 58.1369C80.1439 58.0545 80.3083 58.0011 80.4726 57.9476ZM103.304 51.6372L103.304 51.6371C103.343 51.5486 103.41 51.3976 103.518 51.3564C103.668 51.2998 103.916 51.3677 104.056 51.4717C104.2 51.5791 104.306 51.7832 104.358 51.9653C104.439 52.2612 104.497 52.5723 104.503 52.8774C104.51 53.2222 104.29 53.3403 104.003 53.1606C103.616 52.9175 103.247 52.4995 103.277 51.6943C103.284 51.6834 103.293 51.663 103.304 51.6372ZM107.128 63.3996C106.923 63.5257 106.677 63.5813 106.442 63.5685C106.501 63.0678 106.697 62.6998 106.95 62.3767C106.697 62.6998 106.501 63.0679 106.442 63.5687C106.677 63.5815 106.923 63.5258 107.128 63.3996ZM107.687 61.5721C107.607 61.6582 107.526 61.7419 107.446 61.825C107.446 61.8249 107.446 61.8248 107.446 61.8248L107.447 61.8247C107.527 61.7417 107.607 61.6581 107.687 61.5721ZM108.222 60.0858C110.659 58.4476 113.467 57.764 113.929 57.704C114.125 57.6781 114.232 57.8002 114.233 57.9872C114.235 58.1395 114.074 58.3441 113.945 58.328C111.413 58.6783 109.132 60.1964 108.586 60.5596L108.586 60.5599C108.546 60.5864 108.515 60.6067 108.495 60.62C108.509 60.6855 108.542 60.7745 108.582 60.8831C108.8 61.4718 109.23 62.6385 108.168 63.7865C107.571 64.4232 106.86 64.5677 106.093 64.2958C105.851 64.2103 105.665 63.9842 105.61 63.725C105.558 63.4774 105.598 63.1756 105.666 62.9232C105.817 62.3534 106.174 61.9481 106.54 61.5599C106.699 61.3919 106.832 61.2631 106.954 61.1449L106.954 61.1449L106.954 61.1448C107.059 61.043 107.157 60.949 107.255 60.8446C107.517 60.5664 107.394 60.4262 107.045 60.0295C106.823 59.7772 106.51 59.4213 106.147 58.8602C105.178 59.7494 103.718 61.1595 101.207 63.6654C101.053 63.8202 100.871 63.9471 100.689 64.0658C100.227 64.3675 99.8334 64.2953 99.5123 63.8451C99.2501 63.4754 99.1108 63.0575 99.1668 62.6009C99.1984 62.341 99.2523 62.0843 99.3062 61.8276L99.3062 61.8275C99.3277 61.7255 99.3491 61.6235 99.3691 61.5213C99.3904 61.4129 99.4138 61.3053 99.4374 61.1974L99.4374 61.1971L99.438 61.1942C99.4508 61.1355 99.4637 61.0766 99.4762 61.0174C99.4619 61.0098 99.4476 61.0023 99.4334 60.9949L99.4331 60.9947C99.4148 60.9851 99.3965 60.9756 99.3784 60.9657C99.3447 60.9943 99.31 61.022 99.2753 61.0496L99.2753 61.0496C99.2029 61.1073 99.1306 61.165 99.0677 61.2313C98.0535 62.3034 96.8865 63.1908 95.7201 64.0778L95.5664 64.1947C95.0037 64.6239 94.3302 64.4413 94.0297 63.7777C93.7982 63.265 93.7437 62.7357 93.9579 62.1761C94.4887 60.7914 95.2794 59.5682 96.1671 58.3993C96.3043 58.2181 96.4393 58.0348 96.5918 57.8278L96.5923 57.827L96.5924 57.8269L96.5925 57.8268C96.6937 57.6894 96.8026 57.5415 96.925 57.3768C96.7862 57.3894 96.6576 57.3988 96.5364 57.4076C96.2494 57.4286 96.0043 57.4465 95.7657 57.4969C95.6328 57.5238 95.5039 57.6791 95.4182 57.807C95.0769 58.315 94.7395 58.8263 94.402 59.3375C94.0646 59.8487 93.7272 60.36 93.3859 60.868C92.5959 62.0443 91.6317 63.0653 90.5508 63.9671C89.672 64.6996 88.7241 64.4462 88.2746 63.3822C88.1972 63.1981 88.1528 62.999 88.1085 62.8C88.0929 62.7298 88.0773 62.6597 88.0602 62.5902C88.0388 62.5028 88.0235 62.414 88.0039 62.299C87.9929 62.2348 87.9805 62.1624 87.9648 62.0775C87.8693 62.1623 87.7784 62.2426 87.691 62.32C87.4672 62.5179 87.2661 62.6957 87.068 62.8758C86.9407 62.9918 86.8161 63.1111 86.6916 63.2303C86.4475 63.4639 86.2036 63.6974 85.9401 63.9056C85.3309 64.3856 84.8773 64.4183 84.4028 64.0824C83.9413 63.7557 83.7049 63.0692 83.8509 62.4598C84.1074 61.389 84.6169 60.4427 85.2687 59.5726C86.094 58.4706 87.0171 57.4662 88.1752 56.7074C88.9621 56.1908 89.5123 56.2284 90.231 56.8441C90.2964 56.8998 90.3807 56.9403 90.4625 56.9691C91.2953 57.2591 91.4529 57.8426 90.9181 58.555C90.1537 59.5726 89.5429 60.6712 89.3285 61.9535C89.2922 62.1709 89.2763 62.3917 89.26 62.6178C89.2525 62.7223 89.2449 62.828 89.2352 62.9349C89.5192 62.9667 89.6652 62.828 89.8062 62.6942C89.8343 62.6675 89.8622 62.641 89.891 62.6161C91.4801 61.2401 92.6954 59.5526 93.8097 57.784C94.1177 57.2949 94.4027 56.7901 94.6873 56.2857L94.6903 56.2805C94.7454 56.183 94.8004 56.0855 94.8556 55.9881C95.0097 55.7157 95.2273 55.6141 95.4795 55.8392C95.8454 56.1678 96.1671 56.0438 96.529 55.888C97.1133 55.6371 97.7002 55.3915 98.2944 55.1659C98.7415 54.9969 98.9666 55.0497 99.211 55.3744C99.4617 55.7084 99.6125 56.0936 99.4047 56.4984C99.247 56.8046 99.0439 57.0936 98.8257 57.3622C97.7432 58.6966 96.6925 60.0541 95.7879 61.5194C95.6391 61.7606 95.544 62.035 95.4637 62.3216C95.9154 62.1736 96.2458 61.8651 96.5682 61.564L96.5693 61.5629C96.6209 61.5147 96.6722 61.4668 96.7238 61.4198C97.3889 60.8116 98.0275 60.1738 98.6661 59.5361L98.669 59.5333C98.8036 59.3988 98.9382 59.2644 99.0731 59.1302C99.8791 58.3273 100.678 57.5178 101.477 56.7086L101.478 56.7084L101.69 56.4935C101.771 56.4108 101.848 56.3237 101.925 56.2366L101.925 56.2364C102.005 56.1458 102.085 56.0552 102.17 55.9696C102.494 55.6429 102.889 55.6488 103.143 56.0243C103.361 56.347 103.494 56.7181 103.25 57.1029L103.148 57.2633C102.877 57.687 102.607 58.1105 102.326 58.5267C101.655 59.5174 101.161 60.597 100.757 61.722C100.739 61.7718 100.732 61.8295 100.733 61.8837C100.733 61.9025 100.744 61.9215 100.763 61.9571C100.775 61.9787 100.791 62.0064 100.809 62.0438L100.985 61.8925L100.985 61.8924C101.092 61.8003 101.198 61.7091 101.305 61.6161C102.69 60.1835 106.087 56.6971 106.236 56.6107C106.5 56.4588 106.699 56.5428 106.763 56.8778C107.172 58.4842 107.831 59.4879 108.12 59.9278C108.163 59.9927 108.197 60.0453 108.222 60.0858ZM85.2015 62.8571C85.3152 62.7923 85.4288 62.7274 85.5235 62.641C85.6524 62.5239 85.7817 62.4072 85.9111 62.2905L85.9131 62.2887C87.2011 61.127 88.4897 59.9648 89.2991 58.3695C89.3394 58.2895 89.3906 58.2148 89.4415 58.1402C89.5045 58.0481 89.5672 57.9562 89.6093 57.8553C89.6501 57.7572 89.6347 57.598 89.5787 57.5077C89.5465 57.4545 89.3685 57.4422 89.2858 57.4798C89.0553 57.5819 88.8164 57.6893 88.6236 57.8485C87.1475 59.0672 85.9158 60.4891 85.1346 62.2709C85.0772 62.4018 85.0389 62.5411 85.0004 62.6807C84.9829 62.7446 84.9652 62.8086 84.9458 62.8719L84.9793 62.8969C84.9934 62.9073 85.0075 62.9178 85.0217 62.9284C85.0302 62.9349 85.0388 62.9414 85.0475 62.9481C85.0976 62.9164 85.1496 62.8867 85.2015 62.8571Z" fill="white"/>
<rect y="81.5" width="184" height="0.5" fill="white"/>
<path d="M32.7821 107.764H34.5039V101.525H36.8854V99.9373H30.4007V101.525H32.7821V107.764ZM39.1599 107.764H40.8817V104.622H44.057V107.764H45.7788V99.9373H44.057V103.034H40.8817V99.9373H39.1599V107.764ZM48.6048 107.764H54.564V106.232H50.3154V104.588H54.005V103.057H50.3154V101.469H54.5081V99.9373H48.6048V107.764ZM65.1489 107.898C67.5639 107.898 69.3193 106.075 69.3193 103.85V103.828C69.3193 101.603 67.5863 99.8031 65.1713 99.8031C62.7563 99.8031 61.001 101.626 61.001 103.85V103.873C61.001 106.098 62.7339 107.898 65.1489 107.898ZM65.1713 106.31C63.7849 106.31 62.801 105.192 62.801 103.85V103.828C62.801 102.486 63.7626 101.391 65.1489 101.391C66.5353 101.391 67.5192 102.509 67.5192 103.85V103.873C67.5192 105.215 66.5577 106.31 65.1713 106.31ZM71.797 107.764H73.5188V105.416H74.8269C76.5822 105.416 77.991 104.477 77.991 102.665V102.643C77.991 101.044 76.8618 99.9373 74.9946 99.9373H71.797V107.764ZM73.5188 103.884V101.491H74.8493C75.7102 101.491 76.2468 101.905 76.2468 102.677V102.699C76.2468 103.37 75.7437 103.884 74.8828 103.884H73.5188ZM82.038 107.764H83.7598V101.525H86.1412V99.9373H79.6565V101.525H82.038V107.764ZM88.494 107.764H90.2158V99.9373H88.494V107.764ZM96.7893 107.898C98.2987 107.898 99.1931 107.361 99.9981 106.5L98.9024 105.393C98.2875 105.952 97.7396 106.31 96.8452 106.31C95.5035 106.31 94.5755 105.192 94.5755 103.85V103.828C94.5755 102.486 95.5259 101.391 96.8452 101.391C97.6278 101.391 98.2427 101.726 98.8465 102.274L99.9422 101.011C99.2155 100.295 98.3322 99.8031 96.8564 99.8031C94.4526 99.8031 92.7755 101.626 92.7755 103.85V103.873C92.7755 106.12 94.4861 107.898 96.7893 107.898ZM101.656 107.764H103.411L104.127 106.008H107.436L108.152 107.764H109.952L106.598 99.8814H105.01L101.656 107.764ZM104.742 104.488L105.782 101.95L106.821 104.488H104.742ZM112.11 107.764H117.734V106.198H113.832V99.9373H112.11V107.764ZM124.285 107.764H126.007V104.734H129.741V103.168H126.007V101.503H130.244V99.9373H124.285V107.764ZM131.007 107.764H132.762L133.477 106.008H136.787L137.502 107.764H139.303L135.948 99.8814H134.361L131.007 107.764ZM134.092 104.488L135.132 101.95L136.172 104.488H134.092ZM141.539 107.764H143.261V99.9373H141.539V107.764ZM146.167 107.764H147.889V105.259H149.219H149.242L150.919 107.764H152.931L151.019 104.969C152.014 104.6 152.697 103.806 152.697 102.542V102.52C152.697 101.782 152.462 101.167 152.026 100.731C151.511 100.217 150.74 99.9373 149.745 99.9373H146.167V107.764ZM147.889 103.739V101.491H149.6C150.438 101.491 150.952 101.872 150.952 102.609V102.632C150.952 103.291 150.472 103.739 149.633 103.739H147.889Z" fill="white"/>
</svg>
