<?xml version="1.0" standalone="no"?>
<!DOCTYPE svg PUBLIC "-//W3C//DTD SVG 20010904//EN"
 "http://www.w3.org/TR/2001/REC-SVG-20010904/DTD/svg10.dtd">
<svg version="1.0" xmlns="http://www.w3.org/2000/svg"
 width="275.000000pt" height="135.000000pt" viewBox="0 0 275.000000 135.000000"
 preserveAspectRatio="xMidYMid meet">
<metadata>
Created by potrace 1.10, written by Peter Selinger 2001-2011
</metadata>
<g transform="translate(0.000000,135.000000) scale(0.100000,-0.100000)"
fill="#000000" stroke="none">
<path d="M1815 1199 c-4 -6 -5 -12 -2 -15 2 -3 7 2 10 11 7 17 1 20 -8 4z"/>
<path d="M293 1160 c-17 -6 -43 -25 -58 -42 -23 -28 -27 -39 -23 -80 7 -66 32
-90 123 -117 77 -22 105 -45 105 -88 0 -41 -34 -63 -96 -63 -49 0 -59 4 -84
30 -24 25 -30 27 -45 16 -17 -12 -17 -14 -1 -38 23 -35 69 -52 132 -51 111 3
162 70 130 170 -9 30 -43 49 -117 68 -76 20 -99 38 -99 77 0 42 15 64 51 77
48 17 59 14 96 -25 31 -33 36 -35 50 -21 14 13 12 19 -18 52 -38 40 -88 52
-146 35z"/>
<path d="M702 948 c3 -215 4 -223 23 -223 19 0 20 8 23 223 l2 222 -25 0 -25
0 2 -222z"/>
<path d="M1002 950 l3 -220 138 -3 c136 -2 137 -2 137 21 0 22 -2 22 -115 22
l-115 0 -2 198 c-3 196 -3 197 -26 200 l-22 3 2 -221z"/>
<path d="M1470 945 c0 -218 1 -225 20 -225 19 0 20 7 20 181 l0 181 88 -175
c48 -96 90 -176 94 -176 5 -1 48 79 97 177 l90 177 0 -182 c1 -176 2 -183 21
-183 19 0 20 7 20 225 l0 225 -25 0 c-22 0 -34 -19 -113 -175 l-87 -175 -88
175 c-78 157 -90 175 -112 175 l-25 0 0 -225z m43 153 c-8 -14 -19 -8 -20 12
-1 16 1 17 12 7 7 -6 11 -15 8 -19z m369 0 c-6 -6 -12 -6 -17 3 -5 8 -4 10 3
5 7 -4 12 0 13 11 0 12 2 13 6 5 3 -8 1 -18 -5 -24z"/>
<path d="M2311 1160 c-54 -13 -113 -61 -140 -113 -75 -146 29 -317 192 -317
65 0 114 19 154 59 79 78 88 199 24 290 -46 64 -151 101 -230 81z m128 -58
c143 -72 127 -272 -26 -323 -101 -33 -223 59 -223 170 0 59 54 137 110 160 39
15 102 13 139 -7z"/>
<path d="M440 996 c0 -2 8 -10 18 -17 15 -13 16 -12 3 4 -13 16 -21 21 -21 13z"/>
<path d="M216 717 c3 -10 9 -15 12 -12 3 3 0 11 -7 18 -10 9 -11 8 -5 -6z"/>
<path d="M821 400 c-6 -16 -16 -43 -22 -59 -5 -15 -13 -50 -17 -76 -7 -45 -9
-49 -45 -59 l-39 -11 26 -24 26 -25 43 30 c44 31 44 31 38 117 -2 27 -4 29
-11 12 -6 -14 -9 -15 -9 -4 -1 8 3 19 8 25 10 10 26 104 18 104 -2 0 -10 -13
-16 -30z m1 -162 c-2 -10 -8 -21 -13 -24 -5 -3 -6 3 -2 12 4 11 2 15 -4 11 -6
-4 -8 3 -6 18 4 18 8 21 18 12 6 -6 10 -19 7 -29z m-26 -40 c4 -6 3 -8 -4 -4
-6 3 -13 2 -17 -4 -3 -5 -11 -10 -18 -10 -6 0 -2 7 9 15 23 18 21 17 30 3z"/>
<path d="M846 381 c-4 -28 -4 -57 0 -63 4 -6 6 -33 5 -61 -2 -52 4 -61 62 -93
26 -14 30 -14 48 2 26 24 24 31 -12 39 -17 4 -32 12 -34 18 -2 7 -11 46 -20
87 -10 41 -23 86 -30 99 -11 22 -12 21 -19 -28z m11 -48 c-3 -10 -5 -4 -5 12
0 17 2 24 5 18 2 -7 2 -21 0 -30z m29 -93 c-1 -16 2 -32 6 -34 5 -3 3 -3 -4
-2 -7 2 -12 11 -10 21 2 9 -1 15 -6 11 -5 -3 -9 1 -9 9 0 8 4 15 9 15 5 0 6 5
2 12 -4 6 -3 8 3 5 6 -4 10 -20 9 -37z"/>
<path d="M1924 419 c-50 -14 -77 -51 -82 -114 -5 -63 10 -94 61 -125 38 -24
78 -25 117 -5 49 25 70 62 70 121 0 64 -31 108 -88 124 -42 11 -37 11 -78 -1z
m97 -29 c53 -29 65 -122 21 -172 -25 -27 -36 -31 -77 -31 -42 0 -52 4 -78 33
-26 29 -29 38 -24 83 3 39 11 56 31 74 29 25 92 31 127 13z"/>
<path d="M480 289 l0 -131 81 4 c71 3 83 6 101 27 23 30 17 68 -15 93 -12 10
-17 18 -10 18 19 0 35 39 29 66 -9 34 -55 54 -126 54 l-60 0 0 -131z m133 100
c41 -22 46 -40 17 -69 -15 -15 -33 -20 -75 -20 l-55 0 0 50 0 50 46 0 c25 0
55 -5 67 -11z m18 -119 c12 -7 19 -21 19 -41 0 -36 -27 -49 -101 -49 l-49 0 0
50 0 50 56 0 c30 0 64 -5 75 -10z"/>
<path d="M1041 290 c-1 -114 0 -130 15 -130 14 0 16 13 12 105 -2 57 -1 101 2
97 4 -4 37 -45 75 -92 38 -47 74 -92 82 -100 11 -12 13 7 13 118 0 87 -4 132
-11 132 -7 0 -9 -35 -7 -104 2 -57 1 -103 -2 -101 -3 2 -41 48 -85 104 -44 55
-83 100 -87 100 -3 1 -7 -57 -7 -129z"/>
<path d="M1374 401 c-38 -23 -59 -77 -51 -133 12 -92 121 -137 202 -84 21 14
25 24 25 66 l0 50 -55 0 c-30 0 -55 -4 -55 -10 0 -5 20 -10 43 -10 l44 0 -2
-37 c-1 -32 -5 -39 -35 -51 -68 -28 -150 25 -150 96 0 37 28 88 56 101 35 16
86 14 112 -5 32 -22 43 -7 13 17 -31 25 -105 25 -147 0z"/>
<path d="M1630 290 c0 -114 2 -130 16 -130 14 0 16 9 11 60 -3 33 -2 60 1 60
4 -1 34 -28 67 -60 33 -33 67 -60 75 -60 8 0 -16 30 -53 67 l-69 67 61 59 c34
32 61 61 61 63 0 17 -34 -6 -88 -58 l-63 -63 7 63 c6 53 4 62 -10 62 -14 0
-16 -17 -16 -130z"/>
<path d="M2170 290 c0 -114 2 -130 16 -130 15 0 16 8 11 60 -4 33 -4 60 -2 60
3 0 33 -27 68 -60 34 -33 69 -60 77 -60 8 0 -16 30 -53 67 l-69 67 61 59 c34
32 61 61 61 63 0 17 -34 -6 -86 -57 l-62 -62 5 62 c5 52 3 61 -11 61 -14 0
-16 -16 -16 -130z"/>
<path d="M1331 153 c-1 -17 16 -25 25 -12 4 7 3 9 -4 5 -5 -3 -13 0 -15 6 -4
9 -6 10 -6 1z"/>
<path d="M976 132 c-3 -5 1 -9 9 -9 8 0 12 4 9 9 -3 4 -7 8 -9 8 -2 0 -6 -4
-9 -8z"/>
</g>
</svg>
