<svg id="Calque_1" data-name="Calque 1" xmlns="http://www.w3.org/2000/svg" viewBox="0 0 64.88 25.19"><title>ist</title><path d="M45.07,21.34c.49,1.07-.49,3.12,1.19,3.34-.24.39-1.06.39-1.55.21a2.34,2.34,0,0,1-1.47-1.41c-.45-1.16.21-3-.49-3.81a2.5,2.5,0,0,1,2.33,1.67"/><path d="M48.1,19.67c-.82,1.12.05,2.72-.46,4a1.15,1.15,0,0,1-.77.74,1,1,0,0,1-1.1-.39,4.36,4.36,0,0,1,.29-3.38,2.22,2.22,0,0,1,2-1"/><path d="M45.41,21.33c.12-.78.21-1.2.75-1.54a1.57,1.57,0,0,0-.75-1,1.74,1.74,0,0,0-.81,1,1.85,1.85,0,0,1,.81,1.54"/><path d="M45.32,21.38c.49,1.07-.49,3.12,1.19,3.34-.24.39-1.06.39-1.55.21a2.34,2.34,0,0,1-1.47-1.41c-.45-1.16.21-3-.49-3.81a2.5,2.5,0,0,1,2.33,1.67" style="fill:#adafb2"/><path d="M48.35,19.71c-.82,1.12.05,2.72-.46,4a1.15,1.15,0,0,1-.77.74,1,1,0,0,1-1.1-.39,4.36,4.36,0,0,1,.29-3.38,2.22,2.22,0,0,1,2-1" style="fill:#adafb2"/><path d="M45.67,21.37c.12-.78.21-1.2.75-1.54a1.57,1.57,0,0,0-.75-1,1.74,1.74,0,0,0-.81,1,1.85,1.85,0,0,1,.81,1.54" style="fill:#adafb2"/><path d="M50.36,24.94a.25.25,0,0,0,.07.18.22.22,0,0,0,.16.07H54a.22.22,0,0,0,.17-.07.25.25,0,0,0,.07-.18.24.24,0,0,0-.07-.17A.22.22,0,0,0,54,24.7H50.83V19a.25.25,0,0,0-.07-.18.22.22,0,0,0-.17-.07.22.22,0,0,0-.16.07.25.25,0,0,0-.07.18Zm-12.3-6.16a.22.22,0,0,0-.17.07.24.24,0,0,0-.07.18v5.91a.24.24,0,0,0,.07.18.22.22,0,0,0,.17.07h1.55a1.69,1.69,0,0,0,1.27-.55,2,2,0,0,0,0-2.68,2.25,2.25,0,0,0-.61-.43,1.69,1.69,0,0,0,.51-1.19,1.55,1.55,0,0,0-.43-1.1,1.38,1.38,0,0,0-1-.46Zm1.55,3.12a1.22,1.22,0,0,1,.93.41,1.45,1.45,0,0,1,0,2,1.23,1.23,0,0,1-.93.41H38.3V21.9Zm-.31-2.63a1,1,0,0,1,.71.32,1.1,1.1,0,0,1,0,1.51.94.94,0,0,1-.71.31h-1V19.28ZM31,19.75l3.94,5.37a.21.21,0,0,0,.17.07.22.22,0,0,0,.16-.07.25.25,0,0,0,.07-.18V19a.25.25,0,0,0-.07-.18.22.22,0,0,0-.16-.07.22.22,0,0,0-.17.07.25.25,0,0,0-.07.18v5.2l-3.94-5.36a.22.22,0,0,0-.18-.09.22.22,0,0,0-.17.07.25.25,0,0,0-.07.18v5.91a.25.25,0,0,0,.07.18.22.22,0,0,0,.17.07.21.21,0,0,0,.16-.07.25.25,0,0,0,.07-.18ZM25.15,22.4l1-2.69,1,2.69Zm2.15.49L28.09,25a.28.28,0,0,0,.06.09.23.23,0,0,0,.16.06.22.22,0,0,0,.16-.07.25.25,0,0,0,.07-.18.27.27,0,0,0,0-.11L26.36,19a.3.3,0,0,0-.06-.1.22.22,0,0,0-.17-.07.22.22,0,0,0-.16.07.37.37,0,0,0-.06.11l-2.16,5.88a.29.29,0,0,0,0,.11.25.25,0,0,0,.07.18.23.23,0,0,0,.33,0,.27.27,0,0,0,.05-.09L25,22.89Zm-6.94-3.62v5.67a.25.25,0,0,0,.07.18.22.22,0,0,0,.17.07.22.22,0,0,0,.16-.07.25.25,0,0,0,.07-.18V19.28h1.79a.22.22,0,0,0,.17-.07.24.24,0,0,0,.07-.17.24.24,0,0,0-.07-.18.22.22,0,0,0-.17-.07h-4a.22.22,0,0,0-.16.07.24.24,0,0,0-.07.18.24.24,0,0,0,.07.17.22.22,0,0,0,.16.07Zm-6.9,5.05.14.19a1.77,1.77,0,0,0,1.38.67,1.67,1.67,0,0,0,1.14-.45,2,2,0,0,0,.45-.58,2,2,0,0,0,.18-.88,1.85,1.85,0,0,0-.11-.63,2.1,2.1,0,0,0-.31-.57,1.76,1.76,0,0,0-1.08-.63,1.41,1.41,0,0,1-.83-.4,1,1,0,0,1-.19-.36,1.22,1.22,0,0,1,0-.42,1,1,0,0,1,.35-.72,1,1,0,0,1,.74-.26.94.94,0,0,1,.68.38l.15.2a.18.18,0,0,0,.15.06.22.22,0,0,0,.16-.07.25.25,0,0,0,.07-.17.28.28,0,0,0,0-.14,1.65,1.65,0,0,0-.14-.21,1.45,1.45,0,0,0-1.12-.56,1.38,1.38,0,0,0-1,.38,1.64,1.64,0,0,0-.43,1.73,1.73,1.73,0,0,0,.26.47,1.61,1.61,0,0,0,1,.55,1.5,1.5,0,0,1,.9.49,1.48,1.48,0,0,1,.18,1.52,1.55,1.55,0,0,1-.33.44,1.23,1.23,0,0,1-.84.33,1.29,1.29,0,0,1-.61-.15A1.46,1.46,0,0,1,14,24.2L13.84,24a.23.23,0,0,0-.2-.11.21.21,0,0,0-.17.07.26.26,0,0,0,0,.33m-2.82.61a.25.25,0,0,0,.07.18.21.21,0,0,0,.16.07.22.22,0,0,0,.17-.07.25.25,0,0,0,.07-.18V19a.25.25,0,0,0-.07-.18.22.22,0,0,0-.17-.07.21.21,0,0,0-.16.07.25.25,0,0,0-.07.18Z"/><path d="M58.92,1.22A4.78,4.78,0,0,0,54.13,6a4.84,4.84,0,0,0,4.78,4.77A4.79,4.79,0,0,0,63.72,6a4.85,4.85,0,0,0-4.8-4.77m0,10.72a6,6,0,1,1,6-6,6,6,0,0,1-6,6"/><path d="M3.69,12A3.57,3.57,0,0,1,0,10.14a.33.33,0,0,1,0-.34,1,1,0,0,1,.68-.44.22.22,0,0,1,.19.09L1,9.57a2.61,2.61,0,0,0,.89.89l0,0a2.67,2.67,0,0,0,1.55.42h.37c1.78,0,2.51-.57,2.51-2,0-1.62-1.18-1.9-2.68-2.25C2,6.3.14,5.85.14,3.16.14,1.11,2.09,0,3.93,0,5.3,0,6.24.66,7.08,2.19a.19.19,0,0,1,0,.19,1.17,1.17,0,0,1-.73.43.19.19,0,0,1-.16-.07,3.25,3.25,0,0,1-.26-.4,3.24,3.24,0,0,0-.33-.49l-.06-.07a1.81,1.81,0,0,0-1.39-.71l-.28,0A2.25,2.25,0,0,0,1.39,3.28c0,1.66,1.2,1.91,2.72,2.22s3.51.73,3.51,3.34c0,2-1.43,3.11-3.93,3.11"/><path d="M14.54,12h-.78a.21.21,0,0,1-.21-.21V.23A.21.21,0,0,1,13.76,0h.78a.21.21,0,0,1,.21.21V11.75a.21.21,0,0,1-.21.21"/><path d="M29.14,12H21.93a.21.21,0,0,1-.21-.21V.23A.21.21,0,0,1,21.93,0h.76a.21.21,0,0,1,.21.21V10.84h6.24a.21.21,0,0,1,.21.21v.7a.21.21,0,0,1-.21.21"/><path d="M46.59,12h-.7a.21.21,0,0,1-.21-.21V2.07l-4.87,9.7a.22.22,0,0,1-.38,0l-4.85-9.6v9.59a.21.21,0,0,1-.21.21h-.7a.21.21,0,0,1-.21-.21V.23A.21.21,0,0,1,34.66,0h1.06a.21.21,0,0,1,.19.12l4.7,9.37L45.32.13A.21.21,0,0,1,45.51,0h1.08a.21.21,0,0,1,.21.21V11.75a.21.21,0,0,1-.21.21"/></svg>