<svg width="127" height="57" viewBox="0 0 127 57" fill="none" xmlns="http://www.w3.org/2000/svg">
<g clip-path="url(#clip0)">
<path d="M115.331 2.39101C110.154 2.39101 105.954 6.61798 105.954 11.827C105.954 16.9506 110.239 21.2629 115.331 21.2629C120.508 21.2629 124.751 17.036 124.751 11.827C124.709 6.70337 120.423 2.39101 115.331 2.39101ZM115.331 23.5685C108.881 23.5685 103.62 18.3169 103.62 11.827C103.62 5.33708 108.881 0.0426941 115.331 0.0426941C121.781 0.0426941 127 5.33708 127 11.827C127 18.3169 121.738 23.5685 115.331 23.5685Z" fill="#353030"/>
<path d="M7.21347 23.6112C5.09186 23.6112 1.90943 23.6112 0.0424082 20.0247C-2.41374e-05 19.8539 -0.0424565 19.6404 0.127273 19.3416C0.381867 18.9146 1.06078 18.4876 1.48511 18.4876C1.69727 18.4876 1.78213 18.573 1.867 18.6584L2.03673 18.8719C2.54592 19.5978 2.92781 20.1101 3.77645 20.6225L3.81889 20.6652C4.54024 21.0921 5.09186 21.4337 6.87402 21.4764C7.12861 21.4764 7.3832 21.4764 7.59536 21.4764C11.0748 21.4764 12.5175 20.3663 12.5175 17.591C12.5175 14.3888 10.1837 13.8337 7.25591 13.1506C3.94618 12.4247 0.25457 11.5281 0.25457 6.23371C0.25457 2.17753 4.07348 0 7.68023 0C10.3535 0 12.2205 1.2809 13.8329 4.31236C13.8753 4.39775 13.9178 4.52584 13.7905 4.69663C13.5783 5.0809 12.7721 5.55056 12.3478 5.55056C12.1781 5.55056 12.0932 5.46517 12.0508 5.42247C11.881 5.16629 11.7113 4.91011 11.5416 4.65393C11.3718 4.31236 11.1597 3.97079 10.9051 3.67191L10.7778 3.54382C10.311 2.98876 9.80185 2.39101 8.06212 2.13483C7.89239 2.13483 7.72266 2.09213 7.5105 2.09213C6.70429 2.09213 2.67321 2.30562 2.67321 6.44719C2.67321 9.73483 5.00699 10.2045 7.97726 10.8449C11.2021 11.5281 14.8513 12.2966 14.8513 17.4629C14.8937 21.3483 12.0932 23.6112 7.21347 23.6112Z" fill="#353030"/>
<path d="M28.4722 23.6112H26.9446C26.7324 23.6112 26.5203 23.4404 26.5203 23.1843V0.46966C26.5203 0.256177 26.69 0.0426941 26.9446 0.0426941H28.4722C28.6843 0.0426941 28.8965 0.213481 28.8965 0.46966V23.227C28.8965 23.4404 28.6843 23.6112 28.4722 23.6112Z" fill="#353030"/>
<path d="M57.0291 23.6112H42.8991C42.687 23.6112 42.4748 23.4404 42.4748 23.1843V0.46966C42.4748 0.256177 42.6445 0.0426941 42.8991 0.0426941H44.3842C44.5964 0.0426941 44.8086 0.213481 44.8086 0.46966V21.4337H57.0291C57.2412 21.4337 57.4534 21.6045 57.4534 21.8607V23.227C57.4534 23.4404 57.2837 23.6112 57.0291 23.6112Z" fill="#353030"/>
<path d="M91.1871 23.6112H89.8293C89.6171 23.6112 89.4049 23.4404 89.4049 23.1843V4.09887L79.8577 23.227C79.7304 23.5258 79.2636 23.5258 79.0939 23.227L69.6315 4.26966V23.1843C69.6315 23.3977 69.4617 23.6112 69.2072 23.6112H67.8493C67.6371 23.6112 67.425 23.4404 67.425 23.1843V0.46966C67.425 0.256177 67.5947 0.0426941 67.8493 0.0426941H69.9285C70.0982 0.0426941 70.2255 0.128087 70.3104 0.256177L79.5182 18.7438L88.6836 0.256177C88.7685 0.128087 88.8958 0.0426941 89.0655 0.0426941H91.1871C91.3993 0.0426941 91.6114 0.213481 91.6114 0.46966V23.227C91.6114 23.4404 91.4417 23.6112 91.1871 23.6112Z" fill="#353030"/>
<path d="M42.0929 56.7011C42.0929 56.5304 42.1353 56.4023 42.1778 56.2315C42.7294 54.3955 43.4083 52.645 44.2145 50.8944C44.6813 49.8697 45.148 48.845 45.5724 47.8202C45.6148 47.6921 45.6996 47.5641 45.7421 47.436C45.6996 47.3933 45.6996 47.3933 45.6572 47.3506" fill="#353030"/>
<path d="M45.6572 47.3506C45.4875 47.3933 45.3177 47.436 45.148 47.5641C44.0448 48.1618 42.8991 48.6315 41.711 49.0157C41.3715 49.1011 41.0321 49.1865 40.6502 49.2292C40.3531 49.2719 40.0986 49.2292 39.844 49.0157C39.7591 48.9303 39.7167 48.8023 39.7167 48.7169C39.7167 48.6742 39.8864 48.5888 39.9713 48.5461C41.0321 48.418 42.008 47.991 42.9415 47.5641C44.0448 47.0517 45.1056 46.4966 46.2088 45.9416C46.3785 45.8562 46.5483 45.7281 46.6331 45.5573C47.1423 44.5753 47.6939 43.5933 48.2031 42.6112C48.5002 42.0135 48.8396 41.373 49.1366 40.7753C49.2215 40.6472 49.2639 40.4764 49.4337 40.4764C49.6458 40.4764 49.7307 40.6045 49.8156 40.7753C49.9429 40.9888 49.9429 41.2023 49.858 41.4157C49.6034 41.9281 49.3912 42.4831 49.1366 42.9955C48.8396 43.5506 48.5426 44.1483 48.2031 44.7888C48.3304 44.7461 48.4153 44.7034 48.5002 44.7034C50.1975 43.7214 51.8947 42.6539 53.4647 41.5011C54.4407 40.7753 55.3318 39.9641 56.0531 39.0247C56.435 38.5551 56.732 38.0427 56.8593 37.4023C56.9442 36.9753 56.8169 36.6764 56.3926 36.5056C55.7985 36.2921 55.162 36.2067 54.5255 36.2494C52.7434 36.3775 51.0885 36.9326 49.4761 37.573C48.0758 38.1708 46.718 38.8539 45.4026 39.5798C43.4507 40.6899 41.6261 42.0135 39.9713 43.5506C39.3348 44.1483 38.7407 44.7888 38.2315 45.4719C38.0618 45.7281 37.9345 45.9843 37.8921 46.2832C37.8921 46.5393 37.7223 46.6247 37.5102 46.4539C37.298 46.2832 37.1707 46.0697 37.2556 45.8135C37.3405 45.5573 37.4253 45.3438 37.5526 45.1303C37.9769 44.4045 38.5286 43.8067 39.165 43.209C40.2259 42.227 41.3715 41.2876 42.5596 40.4764C43.1961 40.0067 43.875 39.6225 44.5539 39.2382C45.1056 38.8966 45.6572 38.5124 46.2512 38.2135C47.0999 37.7865 47.9485 37.4023 48.7972 37.018C49.9429 36.5056 51.131 36.0787 52.3191 35.7371C53.5496 35.3955 54.7801 35.2247 56.0531 35.5663C57.2412 35.8652 57.8777 37.0607 57.5382 38.2562C57.2837 39.0247 56.9018 39.7079 56.3926 40.3056C55.6712 41.1169 54.8226 41.8 53.9739 42.4832C52.9555 43.2944 51.8099 43.9775 50.7066 44.6607C49.6458 45.3011 48.585 45.9416 47.4818 46.5393C47.1423 46.7101 47.015 47.0517 46.8453 47.3506C46.3361 48.3753 45.8694 49.4427 45.4026 50.5101C44.8085 51.8764 44.2145 53.2427 43.6204 54.6517C43.4083 55.164 43.2385 55.6764 43.0264 56.1461C42.8991 56.4449 42.7294 56.7438 42.5172 57.0854" fill="#353030"/>
<path d="M41.9232 56.7011C41.9232 56.573 41.9656 56.4023 42.008 56.1888C42.5597 54.4382 43.1962 52.6876 44.0448 50.809C44.2994 50.1685 44.5964 49.5708 44.851 48.9303L45.4026 47.6921C45.4451 47.6494 45.4451 47.564 45.4875 47.5213C45.4026 47.564 45.2753 47.6067 45.1905 47.6494C44.0872 48.2472 42.9416 48.7169 41.7535 49.1011C41.4564 49.1865 41.0745 49.2719 40.6926 49.3146C40.3108 49.3573 39.9713 49.2719 39.7591 49.0584C39.6318 48.9303 39.5894 48.7596 39.5894 48.5888C39.6318 48.418 39.844 48.2899 39.9713 48.2899C41.0745 48.1618 42.0505 47.6921 42.8991 47.3079C43.7053 46.9236 44.4691 46.5393 45.2753 46.1551C45.5724 45.9843 45.8694 45.8562 46.1664 45.6854C46.3361 45.6 46.421 45.5146 46.5059 45.3438C46.8029 44.7888 47.0999 44.191 47.397 43.636C47.6091 43.209 47.8213 42.782 48.0759 42.3978C48.3729 41.8427 48.6275 41.2876 48.9245 40.6899L49.0094 40.4764C49.0518 40.3483 49.1791 40.1348 49.4337 40.1348C49.7307 40.1348 49.9005 40.391 49.9853 40.5191C50.1551 40.7753 50.1551 41.0315 50.0278 41.3303L49.9005 41.6292C49.7307 42.0562 49.5186 42.4831 49.3064 42.8674C49.0942 43.2944 48.8821 43.7213 48.6275 44.1483L48.5851 44.2337C50.3248 43.209 51.9372 42.1843 53.4223 41.1169C54.3983 40.4337 55.2469 39.5798 56.0107 38.6404C56.435 38.1281 56.6472 37.6157 56.7745 37.1034C56.8594 36.7618 56.7321 36.5056 56.435 36.3775C55.8834 36.164 55.2469 36.0786 54.6104 36.1213C53.0829 36.2494 51.5553 36.6337 49.6034 37.4449C48.3305 37.9573 47.0151 38.6404 45.5299 39.4517C43.6205 40.5191 41.7959 41.8427 40.141 43.3798C39.4621 44.0202 38.8681 44.618 38.4013 45.3011C38.1891 45.5573 38.1043 45.7708 38.1043 46.027C38.1043 46.2831 37.977 46.3685 37.8921 46.4112C37.8072 46.4539 37.6799 46.4966 37.4678 46.3258C37.0859 46.027 37.1283 45.7281 37.1708 45.5146C37.2556 45.2157 37.3829 45.0022 37.5102 44.7888C37.8921 44.1483 38.4013 43.5079 39.1226 42.8674C40.141 41.8854 41.2867 40.9888 42.5172 40.0921C42.984 39.7506 43.4932 39.4517 43.9599 39.1955C44.1297 39.0674 44.3418 38.982 44.5116 38.8539C44.6389 38.7685 44.8086 38.6831 44.9359 38.5978C45.3178 38.3416 45.7421 38.0854 46.1664 37.8719C46.9726 37.4449 47.7788 37.0607 48.7124 36.6764C49.8156 36.164 50.9613 35.7371 52.2767 35.3955C53.295 35.0966 54.6529 34.8404 56.0956 35.2247C56.6896 35.3955 57.1988 35.7798 57.4959 36.3348C57.7929 36.8899 57.8353 37.4876 57.6656 38.0854C57.411 38.8539 57.0291 39.5371 56.4775 40.1775C55.7561 41.0315 54.9075 41.7146 54.0588 42.3551C53.0405 43.1663 51.8948 43.8494 50.834 44.5326L50.7915 44.5753C49.8156 45.173 48.7972 45.7708 47.5667 46.4539C47.2697 46.6247 47.1424 46.8809 47.0151 47.1798C46.4634 48.3326 45.9967 49.3573 45.5724 50.3393C45.0207 51.6202 44.4267 52.9438 43.7902 54.4809C43.7053 54.7371 43.578 54.9506 43.4932 55.2067C43.4083 55.4629 43.281 55.7191 43.1962 55.9753C43.0689 56.2742 42.8991 56.573 42.7294 56.8292" fill="#353030"/>
<path d="M42.4748 56.7011C42.6445 56.445 42.7718 56.1461 42.8991 55.8899C43.0264 55.6337 43.1112 55.3775 43.1961 55.1214C43.281 54.8652 43.3658 54.609 43.4931 54.3955C44.1296 52.9011 44.7237 51.5348 45.2753 50.2539C45.6996 49.2719 46.1664 48.2472 46.718 47.0944C46.8453 46.7955 47.015 46.4112 47.3969 46.1978C48.6274 45.4719 49.6458 44.8742 50.6218 44.3191L50.6642 44.2764C51.725 43.636 52.8707 42.9528 53.8466 42.1416C54.6953 41.5011 55.5439 40.818 56.2228 40.0067C56.7745 39.3663 57.1139 38.7258 57.3685 38C57.5382 37.4876 57.4958 36.9326 57.2412 36.5056C56.9866 36.036 56.5623 35.6944 56.0107 35.5663C54.9499 35.2674 53.8042 35.3528 52.3615 35.7371C51.0885 36.0787 49.9429 36.5056 48.8396 37.018C47.9485 37.4449 47.1423 37.7865 46.3361 38.2135C45.9118 38.427 45.4875 38.6832 45.1056 38.9393C44.9783 39.0247 44.8085 39.1101 44.6812 39.2382C44.5115 39.3663 44.2994 39.4517 44.1296 39.5798C43.6629 39.8787 43.1537 40.1775 42.6869 40.4764C41.4564 41.3303 40.3107 42.2697 39.2923 43.209C38.6134 43.8494 38.1042 44.4472 37.7223 45.0876C37.6375 45.2584 37.5102 45.4719 37.4253 45.7281C37.3829 45.8135 37.3829 45.9843 37.595 46.1978C37.6375 46.2405 37.6799 46.2405 37.6799 46.2405C37.6799 46.2405 37.6799 46.1978 37.6799 46.1551C37.6799 45.7708 37.8496 45.4719 38.0194 45.2584C38.5286 44.5753 39.0802 43.9348 39.8015 43.2944C41.4988 41.7573 43.3234 40.391 45.2753 39.3236C46.7604 38.4697 48.1183 37.8292 49.3912 37.3169C51.3856 36.5056 52.9555 36.0787 54.4831 35.9506C55.162 35.9079 55.8409 35.9933 56.435 36.2067C56.9018 36.3775 57.1139 36.7618 56.9866 37.2742C56.8593 37.8719 56.6047 38.3843 56.138 38.9393C55.3742 39.8787 54.4831 40.7326 53.5072 41.4584C51.9796 42.5685 50.3247 43.636 48.5002 44.7034C48.4577 44.7461 48.3729 44.7461 48.288 44.7888C48.2456 44.7888 48.2031 44.8315 48.1607 44.8315C48.1183 44.8315 48.0334 44.8315 47.991 44.7888C47.9485 44.7461 47.9485 44.6607 47.991 44.618L48.2456 44.1056C48.5002 43.6787 48.7123 43.2517 48.9245 42.8247C49.1366 42.3978 49.3064 42.0135 49.5185 41.5865L49.6458 41.2876C49.7307 41.1169 49.7307 40.9461 49.6458 40.7753C49.561 40.6045 49.4761 40.5618 49.3912 40.5618C49.3064 40.5618 49.3064 40.5618 49.2639 40.7326L49.1791 40.9461C48.882 41.5011 48.6275 42.0989 48.3304 42.6539C48.1183 43.0809 47.9061 43.5079 47.6515 43.8921C47.3545 44.4472 47.0575 45.0023 46.7604 45.6C46.6331 45.8135 46.5058 45.9416 46.2512 46.0697C45.9542 46.2405 45.6572 46.3685 45.3602 46.5393C44.5964 46.9236 43.7902 47.3506 42.9839 47.6921C42.0929 48.1191 41.0745 48.5461 39.9288 48.7169C39.8864 48.7169 39.844 48.7596 39.844 48.7596C39.844 48.8023 39.8864 48.8876 39.9288 48.9303C40.0561 49.0584 40.2683 49.1438 40.5653 49.1011C40.9472 49.0584 41.2867 48.973 41.5837 48.8876C42.7718 48.5034 43.9175 48.0337 44.9783 47.436C45.1056 47.3506 45.2329 47.3079 45.3602 47.2652C45.4026 47.2652 45.445 47.2225 45.5299 47.2225H45.5723C45.6148 47.2225 45.6572 47.2225 45.6996 47.2652L45.7845 47.3506C45.8269 47.3933 45.8693 47.4787 45.8269 47.5214L45.7845 47.6494C45.7421 47.7348 45.6996 47.8202 45.6572 47.9056L45.1056 49.1438C44.8085 49.7843 44.5539 50.382 44.2994 51.0225C43.4931 52.8584 42.8142 54.609 42.305 56.3596C42.2626 56.5303 42.2202 56.6584 42.2202 56.7865" fill="#353030"/>
<path d="M41.8807 56.7011C41.8807 56.573 41.9232 56.3596 41.9656 56.1888C42.5172 54.4382 43.1537 52.6876 44.0023 50.809C44.2994 50.1258 44.5964 49.4854 44.8934 48.8022L45.3602 47.7348C45.3602 47.7348 45.3602 47.6921 45.4026 47.6921C45.3602 47.6921 45.2753 47.7348 45.2329 47.7775C44.1296 48.3753 42.984 48.8449 41.7534 49.2292C41.4564 49.3146 41.0745 49.4 40.6502 49.4427C40.2259 49.4854 39.9288 49.4 39.6742 49.1865C39.547 49.0584 39.4621 48.8449 39.5045 48.6742C39.547 48.4607 39.8015 48.3326 39.9288 48.3326C40.9897 48.2045 42.008 47.7348 42.8567 47.3506C43.6629 46.9663 44.4267 46.582 45.1905 46.1978C45.4875 46.027 45.7845 45.8989 46.124 45.7281C46.2937 45.6427 46.3786 45.5573 46.4634 45.4292C46.7605 44.8742 47.0575 44.3191 47.3545 43.764C47.5667 43.3371 47.8213 42.9101 48.0334 42.4831C48.3304 41.9281 48.585 41.373 48.8821 40.818L49.0094 40.5618C49.0518 40.4337 49.1791 40.1775 49.4761 40.1775C49.8156 40.1775 49.9853 40.4337 50.0702 40.6045C50.2399 40.8607 50.2399 41.1595 50.1126 41.4584L49.9853 41.7573C49.7732 42.1843 49.6034 42.6112 49.3913 43.0382C49.1791 43.4225 48.9669 43.8494 48.7548 44.2764C50.4521 43.2944 51.9796 42.3124 53.4223 41.2449C54.3983 40.5618 55.2469 39.7079 55.9683 38.8112C56.3502 38.2989 56.6048 37.8292 56.7321 37.3169C56.8169 36.9753 56.6896 36.7618 56.3926 36.6764C55.841 36.4629 55.2469 36.3775 54.6104 36.4202C53.0829 36.5483 51.5553 36.9326 49.6459 37.7438C48.3729 38.2562 47.0575 38.9393 45.5723 39.7506C43.6629 40.818 41.8383 42.1416 40.1834 43.6787C39.5045 44.3191 38.9529 44.9169 38.4437 45.5573C38.274 45.8135 38.1891 46.027 38.1467 46.2405C38.1467 46.4539 38.0618 46.582 37.8921 46.6674C37.7648 46.7528 37.5526 46.7101 37.4253 46.582C37.0434 46.2404 37.0434 45.9416 37.1283 45.7281C37.2132 45.4292 37.3405 45.173 37.4678 45.0022C37.8497 44.3618 38.3588 43.7213 39.0802 43.0382C40.0986 42.0562 41.2442 41.1169 42.5172 40.2629C42.984 39.9213 43.4932 39.6225 43.9599 39.3236C44.1296 39.1955 44.3418 39.1101 44.5115 38.982C44.6388 38.8966 44.8086 38.8112 44.9359 38.7258C45.3602 38.4697 45.7421 38.2135 46.2088 38C47.015 37.573 47.8213 37.1888 48.7548 36.8045C49.858 36.2921 51.0461 35.8652 52.3191 35.5236C53.3375 35.2247 54.7377 34.9685 56.1804 35.3528C56.8169 35.5236 57.3261 35.9079 57.6231 36.4629C57.9202 37.018 58.005 37.6584 57.7929 38.2562C57.5383 39.0247 57.1564 39.7079 56.6048 40.391C55.8834 41.2449 54.9923 41.9281 54.1861 42.5685C53.1677 43.3798 52.0221 44.0629 50.9613 44.7461L50.9188 44.7888C49.9429 45.3865 48.9245 45.9843 47.694 46.6674C47.3969 46.8382 47.2696 47.0944 47.1423 47.3933C46.5907 48.5461 46.124 49.5708 45.6996 50.5528C45.148 51.8337 44.554 53.1573 43.9175 54.6944C43.8326 54.9506 43.7053 55.164 43.6205 55.4202C43.5356 55.6764 43.4083 55.9326 43.3234 56.1888C43.1961 56.4876 43.0264 56.7865 42.8567 57.0854" fill="#353030"/>
<path d="M42.4324 56.7011C42.6021 56.4449 42.7718 56.1461 42.8567 55.8472C42.984 55.591 43.0689 55.3348 43.1537 55.0787C43.2386 54.8225 43.3235 54.5663 43.4507 54.3528C44.0872 52.8584 44.6813 51.4921 45.2329 50.2112C45.6572 49.2292 46.124 48.2045 46.6756 47.0517C46.8453 46.7528 46.9726 46.3685 47.397 46.1551C48.6275 45.4292 49.6459 44.8315 50.6218 44.2764L50.6642 44.2337C51.7251 43.5933 52.8707 42.9101 53.8467 42.0989C54.6953 41.4584 55.544 40.7753 56.2229 39.964C56.7745 39.3663 57.114 38.6832 57.3261 38C57.4959 37.4876 57.4534 36.9753 57.1988 36.5056C56.9442 36.036 56.5199 35.7371 56.0107 35.5663C54.9499 35.2674 53.8467 35.3528 52.3615 35.7371C51.0886 36.0787 49.9429 36.5056 48.8397 37.018C47.9486 37.4449 47.1424 37.7865 46.3361 38.2135C45.9118 38.427 45.4875 38.6831 45.1056 38.9393C44.9783 39.0247 44.8086 39.1101 44.6813 39.1955C44.5116 39.3236 44.2994 39.409 44.1297 39.5371C43.6629 39.836 43.1537 40.1348 42.687 40.4337C41.4564 41.2876 40.3532 42.227 39.3348 43.1663C38.6559 43.8067 38.1467 44.4045 37.7648 45.0023C37.68 45.173 37.5527 45.3865 37.4678 45.6427C37.4254 45.7281 37.4254 45.8562 37.6375 46.027C37.6375 46.027 37.6375 46.027 37.68 46.027C37.68 45.6427 37.8921 45.3011 38.0618 45.0876C38.571 44.4045 39.1227 43.764 39.844 43.1236C41.5413 41.5865 43.3659 40.2202 45.3178 39.1528C46.8029 38.2989 48.1607 37.6584 49.4337 37.1461C51.428 36.3348 52.998 35.9079 54.5256 35.7798C55.2045 35.7371 55.8834 35.8225 56.5199 36.036C57.0291 36.2067 57.2413 36.6337 57.114 37.1888C56.9867 37.7865 56.7321 38.3416 56.2653 38.8966C55.5015 39.836 54.6105 40.6899 53.6345 41.4157C52.1069 42.5258 50.4521 43.5933 48.6275 44.6607C48.5426 44.7034 48.5002 44.7034 48.4153 44.7461C48.3729 44.7461 48.3305 44.7888 48.288 44.7888C48.2032 44.8315 48.1183 44.7888 48.0759 44.7461C48.0334 44.6607 47.991 44.5753 48.0334 44.4899L48.288 43.9775C48.5426 43.5506 48.7548 43.1236 48.967 42.6966C49.1791 42.2697 49.3913 41.8427 49.561 41.4584L49.6883 41.1596C49.7732 40.9888 49.7732 40.8607 49.6883 40.6899C49.6034 40.5191 49.5186 40.4764 49.4761 40.4764C49.4337 40.4764 49.4337 40.4764 49.3913 40.6045L49.264 40.8607C49.0094 41.4157 48.7124 41.9708 48.4153 42.5258C48.2032 42.9528 47.9486 43.3798 47.7364 43.8067C47.4394 44.3618 47.1424 44.9169 46.8453 45.4719C46.718 45.6854 46.5483 45.8562 46.3361 45.9843C46.0391 46.1551 45.7421 46.2832 45.4026 46.4539C44.6389 46.8382 43.8326 47.2225 43.0689 47.6067C42.1778 48.0337 41.1594 48.4607 40.0137 48.6315C40.0137 48.6315 39.9713 48.6315 39.9713 48.6742C39.9713 48.7169 40.0137 48.7596 40.0137 48.7596C40.141 48.8876 40.3532 48.9303 40.6078 48.8876C40.9897 48.8449 41.3291 48.7596 41.6262 48.6742C42.8143 48.2899 43.9599 47.8202 45.0207 47.2225C45.148 47.1371 45.2753 47.0944 45.4026 47.0517C45.4451 47.0517 45.4875 47.009 45.5724 47.009C45.6148 47.009 45.6148 47.009 45.6572 47.009C45.6997 47.009 45.7421 47.009 45.7845 47.0517L45.8694 47.1371C45.9543 47.1798 45.9543 47.3079 45.9118 47.3933L45.8694 47.5214C45.827 47.6067 45.7845 47.6921 45.7421 47.7775L45.2753 48.8449C44.9783 49.5281 44.6813 50.1685 44.3843 50.8517C43.578 52.6876 42.8991 54.4382 42.3899 56.1888C42.3475 56.3596 42.3051 56.4876 42.3051 56.6157" fill="#353030"/>
<path d="M41.711 56.6584C41.711 56.5303 41.7534 56.3169 41.8383 56.1461C42.3899 54.3955 43.0264 52.6023 43.875 50.7663C44.1296 50.1259 44.4267 49.5281 44.7237 48.8876L45.1056 48.0337C44.0872 48.5888 42.984 49.0157 41.8807 49.3573C41.5413 49.4427 41.2018 49.5281 40.7775 49.6135C40.3107 49.6989 39.9288 49.5708 39.6742 49.3146C39.5045 49.1438 39.4196 48.8876 39.4621 48.6742C39.5045 48.3753 39.844 48.2045 40.0137 48.2045C41.0745 48.0764 42.0505 47.6494 42.8991 47.2225C43.6629 46.8382 44.4691 46.4539 45.2329 46.0697L45.3177 46.027C45.6148 45.8989 45.8694 45.7281 46.1664 45.6C46.2937 45.5573 46.3786 45.4719 46.421 45.3438C46.718 44.7888 47.015 44.2337 47.3121 43.6787L47.3969 43.4652C47.5667 43.1236 47.7788 42.7393 47.9485 42.3978C48.2456 41.8427 48.5002 41.2876 48.7972 40.7753L48.9245 40.5191C48.9669 40.391 49.1367 40.0494 49.561 40.0494C49.9853 40.0494 50.1975 40.391 50.2823 40.5191C50.4521 40.818 50.4945 41.2023 50.3248 41.5438L50.1975 41.8427C49.9853 42.2697 49.8156 42.6966 49.6034 43.1236C49.4761 43.3798 49.3488 43.5933 49.2215 43.8494C50.7067 42.9528 52.0645 42.0562 53.3799 41.1169C54.3134 40.4337 55.1621 39.6225 55.9258 38.6832C56.3077 38.2135 56.5623 37.7438 56.6472 37.2315C56.732 36.9326 56.6047 36.8472 56.435 36.7618C55.8834 36.5483 55.3318 36.4629 54.6953 36.5056C53.2102 36.6337 51.6826 37.018 49.7731 37.8292C48.5002 38.3416 47.1848 38.982 45.6996 39.836C43.7902 40.9034 42.008 42.227 40.3532 43.7214C39.6742 44.3618 39.1226 44.9596 38.6559 45.6C38.4861 45.8135 38.4013 45.9843 38.4013 46.1978C38.4013 46.4539 38.274 46.6674 38.0618 46.7528C37.8496 46.8382 37.6375 46.7955 37.4253 46.6247C36.9586 46.2405 37.001 45.8135 37.0859 45.5573C37.2132 45.2157 37.298 45.0023 37.4253 44.7888C37.8072 44.1056 38.3588 43.5079 39.0802 42.8247C40.0986 41.8427 41.2867 40.9034 42.5172 40.0494C42.984 39.7079 43.4932 39.409 43.9599 39.1101C44.1721 38.982 44.3418 38.8966 44.5115 38.7685C44.6388 38.6832 44.8086 38.5978 44.9359 38.5124C45.3602 38.2562 45.7845 38 46.2088 37.7438C47.015 37.3169 47.8637 36.9326 48.7548 36.5056C49.858 35.9933 51.0461 35.5663 52.3615 35.2247C53.4223 34.9259 54.8226 34.627 56.3077 35.0539C56.9866 35.2247 57.5383 35.6517 57.8353 36.2494C58.1747 36.8472 58.2172 37.5303 58.005 38.1708C57.7504 38.9393 57.3685 39.6652 56.7745 40.3483C56.0531 41.2023 55.162 41.8854 54.3134 42.5685C53.2526 43.3798 52.1494 44.0629 51.0461 44.7461L51.0037 44.7888C50.0702 45.3865 49.0094 45.9843 47.7788 46.6674C47.5667 46.7955 47.4394 47.0517 47.3121 47.3079C46.7604 48.4607 46.2937 49.4854 45.8694 50.4247C45.3177 51.6629 44.7237 53.0292 44.0872 54.5663C44.0023 54.8225 43.875 55.036 43.7902 55.2921C43.7053 55.5483 43.578 55.8045 43.4932 56.0607C43.3659 56.3596 43.1961 56.6584 43.0264 56.9573" fill="#353030"/>
<path d="M42.6445 56.8292C42.8142 56.5303 42.984 56.2742 43.1113 55.9753C43.2386 55.7191 43.3234 55.4629 43.4083 55.2067C43.4932 54.9506 43.6204 54.6944 43.7053 54.4382C44.3418 52.9011 44.9359 51.5775 45.4875 50.2966C45.9118 49.3146 46.3786 48.2899 46.9302 47.1371C47.0575 46.8382 47.2272 46.5393 47.5242 46.3685C48.7548 45.6427 49.7731 45.0449 50.7491 44.4899L50.7915 44.4472C51.8948 43.8067 52.998 43.1236 54.0164 42.3124C54.865 41.6292 55.7137 40.9461 56.435 40.1348C56.9867 39.4944 57.3685 38.8112 57.6231 38.0854C57.7929 37.5303 57.7504 36.9326 57.4534 36.4202C57.1564 35.9079 56.6896 35.5236 56.0956 35.3528C54.6953 34.9685 53.3375 35.2674 52.3191 35.5236C51.0461 35.8652 49.858 36.2921 48.7548 36.8045C47.8637 37.2315 47.0575 37.573 46.2088 38C45.7845 38.2135 45.3602 38.4697 44.9783 38.7258C44.8086 38.8112 44.6813 38.8966 44.5115 39.0247C44.3418 39.1528 44.1296 39.2382 43.9599 39.3663C43.4932 39.6652 42.984 39.964 42.5172 40.2629C41.2867 41.1169 40.141 42.0562 39.1226 43.0382C38.4013 43.7214 37.8921 44.3191 37.5102 44.9596C37.3829 45.1303 37.298 45.3438 37.2132 45.6427C37.1283 45.8989 37.2132 46.1124 37.4678 46.3258C37.5951 46.4112 37.6799 46.4539 37.7648 46.4112C37.8496 46.3685 37.8921 46.2831 37.8921 46.1124C37.8921 45.8562 37.9769 45.6 38.1891 45.3438C38.6559 44.7034 39.2499 44.0629 39.9288 43.4225C41.6261 41.8854 43.4507 40.5618 45.3602 39.4944C46.8453 38.6831 48.2031 38 49.4337 37.4876C51.3856 36.6764 52.9556 36.2494 54.4831 36.164C55.1196 36.1213 55.7561 36.2067 56.3502 36.4202C56.6048 36.5056 56.9018 36.7618 56.7745 37.2742C56.6472 37.8292 56.3926 38.3416 55.9683 38.8539C55.2045 39.7933 54.3558 40.6045 53.3799 41.3303C51.9372 42.3978 50.4096 43.3798 48.7123 44.3618C48.6699 44.4045 48.585 44.4045 48.5002 44.3191C48.4577 44.2764 48.4153 44.191 48.4577 44.1056C48.6699 43.6787 48.8821 43.2944 49.0942 42.9101C49.3064 42.4831 49.4761 42.0989 49.6883 41.6719L49.858 41.3303C49.9853 41.0742 49.9429 40.8607 49.8156 40.6472C49.7307 40.4764 49.6034 40.3056 49.3913 40.3056C49.2215 40.3056 49.1367 40.4337 49.0518 40.6045L48.9245 40.8607C48.6699 41.4157 48.3729 41.9708 48.0759 42.5258C47.9061 42.8674 47.694 43.2517 47.5242 43.5933L47.4394 43.8067C47.1423 44.3618 46.8453 44.9169 46.5483 45.4719C46.4634 45.6427 46.3361 45.7708 46.1664 45.8562C45.8694 45.9843 45.6148 46.1551 45.3177 46.2831L45.2329 46.3258C44.4691 46.7101 43.6629 47.0944 42.8991 47.4787C42.0505 47.9056 41.0321 48.3326 39.9288 48.4607C39.844 48.4607 39.6742 48.5461 39.6318 48.6742C39.6318 48.8022 39.6742 48.9303 39.7591 49.0584C39.9288 49.2719 40.2259 49.3146 40.6077 49.2719C41.0321 49.2292 41.3715 49.1438 41.6686 49.0584C42.8567 48.6742 44.0448 48.2045 45.1056 47.6067C45.148 47.564 45.2329 47.564 45.2753 47.5214H45.3177C45.3602 47.5214 45.4026 47.5213 45.445 47.564C45.4875 47.6067 45.4875 47.6921 45.4875 47.7348L44.9359 49.0157C44.6388 49.6562 44.3842 50.2539 44.0872 50.8944C43.281 52.7303 42.6021 54.4809 42.0505 56.2315C42.008 56.4022 41.9656 56.573 41.9656 56.7011" fill="#353030"/>
<path d="M42.1353 56.7011C42.1353 56.573 42.1777 56.4022 42.2202 56.2315C42.7718 54.4809 43.4083 52.7303 44.2145 50.8944C44.5115 50.2112 44.8085 49.5708 45.1056 48.8876L45.5723 47.8202C45.6147 47.7348 45.6572 47.6921 45.6572 47.6067L45.742 47.436C45.742 47.3933 45.742 47.3933 45.742 47.3933L45.6572 47.3079H45.6147C45.5723 47.3079 45.4874 47.3506 45.445 47.3506C45.3177 47.3933 45.1904 47.436 45.0631 47.4786C44.0023 48.0764 42.8566 48.5461 41.6261 48.9303C41.3291 49.0157 40.9896 49.1011 40.5653 49.1438C40.2258 49.1865 40.0137 49.1438 39.8015 48.973C39.7591 48.9303 39.7166 48.8449 39.7166 48.8022V48.7595V48.7169C39.7166 48.6742 39.7166 48.6742 39.7166 48.6315C39.7591 48.5461 39.8864 48.5034 39.9288 48.5461C41.032 48.418 42.0504 47.9483 42.8991 47.564C43.6629 47.2225 44.4266 46.7955 45.1904 46.4539L45.2753 46.4112C45.5723 46.2404 45.8693 46.1124 46.2088 45.9416C46.421 45.8562 46.5483 45.6854 46.6331 45.5146C46.9301 44.9595 47.2272 44.4045 47.5242 43.8494L47.5666 43.8067C47.7788 43.3798 47.991 42.9955 48.2031 42.5685C48.5001 42.0135 48.7547 41.4584 49.0518 40.9034L49.1791 40.6472C49.2215 40.5191 49.2639 40.4337 49.3912 40.4337C49.561 40.4337 49.6458 40.5191 49.7307 40.6899C49.858 40.8607 49.858 41.0742 49.7307 41.2876L49.6034 41.5865C49.4337 42.0135 49.2215 42.4404 49.0093 42.8247C48.7972 43.2517 48.585 43.636 48.3304 44.0629L48.0334 44.5753V44.618C48.0334 44.618 48.0758 44.6607 48.0758 44.618C48.1183 44.618 48.1607 44.5753 48.2031 44.5753C48.288 44.5753 48.3304 44.5326 48.3728 44.4899C50.1974 43.4225 51.8099 42.3977 53.3374 41.2876C54.3134 40.5618 55.2045 39.7506 55.9682 38.8112C56.3926 38.2989 56.6472 37.7438 56.7745 37.1888C56.8593 36.7191 56.6896 36.3775 56.2653 36.2494C55.6712 36.036 55.0347 35.9506 54.3558 35.9933C52.8282 36.1213 51.2582 36.5056 49.3064 37.3169C48.0334 37.8292 46.718 38.5124 45.1904 39.3236C43.2385 40.391 41.4139 41.7146 39.7591 43.2944C39.0802 43.9348 38.4861 44.5753 38.0194 45.2157C37.8921 45.4292 37.7223 45.6854 37.6799 46.0697C37.6799 46.1124 37.6375 46.1978 37.595 46.2404C37.5526 46.2831 37.4677 46.2831 37.4253 46.2404L37.3829 46.1977C37.1707 46.027 37.0858 45.8135 37.1707 45.6C37.2556 45.3011 37.3404 45.0876 37.4677 44.9169C37.8496 44.2764 38.3588 43.6787 39.0377 43.0382C40.0561 42.0989 41.2018 41.1595 42.4323 40.3056C42.8991 39.964 43.4083 39.6652 43.875 39.409C44.0447 39.2809 44.2569 39.1955 44.4266 39.0674C44.5539 38.982 44.7237 38.8966 44.851 38.8112C45.2329 38.5551 45.6572 38.2989 46.0815 38.0854C46.8877 37.6584 47.6939 37.2742 48.6274 36.8899C49.7307 36.3775 50.8764 35.9933 52.1493 35.609C53.6345 35.182 54.7801 35.1393 55.8834 35.4382C56.435 35.609 56.9017 35.9506 57.1563 36.4202C57.4109 36.8899 57.4958 37.4876 57.3261 38.0427C57.1139 38.7685 56.732 39.4517 56.1804 40.0921C55.459 40.9034 54.6104 41.5865 53.7618 42.2697C52.7434 43.0809 51.6401 43.764 50.5369 44.4045L50.4945 44.4472C49.561 45.0449 48.5426 45.6427 47.2696 46.3258C46.9301 46.5393 46.7604 46.8382 46.6331 47.1371C46.1239 48.2472 45.6572 49.2719 45.1904 50.2966C44.6388 51.5775 44.0447 52.9011 43.4083 54.4382C43.3234 54.6944 43.1961 54.9079 43.1112 55.164C43.0264 55.4202 42.8991 55.6764 42.8142 55.9326C42.6869 56.2315 42.5172 56.4876 42.3475 56.7865" fill="#353030"/>
<path d="M45.6572 46.9663C45.7421 46.9663 45.8269 47.009 45.9118 47.0517L45.9967 47.1371C46.124 47.2652 46.1664 47.4359 46.0815 47.564L45.9967 47.7348C45.9542 47.8202 45.9118 47.9056 45.9118 47.9483L45.445 49.0157C45.148 49.6989 44.851 50.3393 44.554 51.0225C43.8326 52.6449 43.2386 54.2247 42.7294 55.7618C42.8142 55.5056 42.9415 55.2494 43.0264 55.0359C43.1113 54.7798 43.1961 54.5236 43.3234 54.3101C43.9599 52.773 44.554 51.4494 45.148 50.1685C45.5723 49.1865 46.0815 48.1191 46.5907 47.009C46.7604 46.6674 46.9302 46.2831 47.3545 46.027C48.585 45.3011 49.6034 44.7034 50.5369 44.1483L50.5794 44.1056C51.6402 43.4652 52.7434 42.782 53.7618 41.9708C54.568 41.3303 55.4166 40.6472 56.138 39.836C56.6472 39.2382 57.0291 38.5977 57.2412 37.9146C57.3261 37.7011 57.3261 37.4876 57.3261 37.2742V37.3169C57.1988 37.9146 56.9018 38.5124 56.435 39.0674C55.6712 40.0494 54.7802 40.9034 53.7618 41.6292C52.2342 42.7393 50.5794 43.8067 48.7548 44.8742C48.6699 44.9168 48.585 44.9595 48.5002 44.9595C48.4577 44.9595 48.4153 45.0022 48.3729 45.0022C48.2456 45.0449 48.0759 45.0022 47.9486 44.8742C47.8637 44.7461 47.8213 44.5753 47.9061 44.4472L48.2031 43.9348C48.4153 43.5079 48.6699 43.0809 48.8396 42.6966C49.0518 42.2697 49.2215 41.8427 49.4337 41.4584L49.561 41.1595C49.6034 41.0315 49.6034 40.9461 49.561 40.8607C49.561 40.818 49.5185 40.818 49.5185 40.818L49.3913 41.0315C49.0942 41.5865 48.8396 42.1416 48.5426 42.6966C48.3304 43.1236 48.1183 43.5079 47.9061 43.9348L47.8637 43.9775C47.5667 44.5326 47.2696 45.0876 46.9726 45.6427C46.8453 45.8989 46.6756 46.0697 46.3786 46.1977C46.0815 46.3685 45.7845 46.4966 45.445 46.6674L45.3602 46.7101C44.5964 47.0944 43.8326 47.4786 43.0688 47.8202C42.2626 48.2045 41.3291 48.6315 40.3107 48.8022C40.3532 48.8022 40.438 48.8022 40.5229 48.8022C40.9048 48.7595 41.2442 48.6742 41.4988 48.5888C42.6869 48.2045 43.7902 47.7348 44.851 47.1798C44.9783 47.0944 45.148 47.0517 45.2753 47.009C45.3177 47.009 45.3602 46.9663 45.445 46.9663C45.5723 46.9663 45.6148 46.9663 45.6572 46.9663Z" fill="#353030"/>
<path d="M44.3418 39.7079C44.2994 39.7079 44.2569 39.7506 44.2569 39.7506C43.7902 40.0494 43.281 40.3483 42.8567 40.6472C41.6261 41.5011 40.5229 42.3978 39.5045 43.3798C38.9104 43.9348 38.4861 44.4045 38.1467 44.9169C38.6134 44.3191 39.165 43.764 39.7591 43.1663C41.2018 41.8427 42.7294 40.6899 44.3418 39.7079Z" fill="#353030"/>
<path d="M54.6953 35.609C54.0164 35.609 53.295 35.7371 52.4888 35.9506C51.2158 36.2921 50.0702 36.7191 49.0094 37.1888C48.1183 37.6157 47.3121 37.9573 46.5058 38.3843C46.0815 38.5978 45.6996 38.8539 45.2753 39.1101C45.148 39.1955 44.9783 39.2809 44.851 39.3663C44.7661 39.409 44.6388 39.4944 44.554 39.5371C44.8085 39.3663 45.0631 39.2382 45.3177 39.1101C46.8029 38.2562 48.1607 37.6157 49.4337 37.0607C51.428 36.2494 53.0404 35.8225 54.6104 35.6944C55.2893 35.6517 55.9683 35.7371 56.5623 35.9506C56.3926 35.8652 56.2229 35.7798 56.0531 35.7371C55.5864 35.6517 55.162 35.609 54.6953 35.609Z" fill="#353030"/>
<path d="M74.2991 41.4157C74.3415 41.373 74.4264 41.0742 74.6385 41.0315C74.8507 40.9461 75.1901 41.0315 75.4023 41.1595C75.6145 41.2876 75.7418 41.5011 75.8266 41.7146C75.9539 42.0562 76.0388 42.4404 76.0388 42.782C76.0388 43.1663 75.7418 43.3371 75.3599 43.1236C74.8083 42.8674 74.2991 42.3551 74.2991 41.4157Z" fill="#353030"/>
<path d="M75.6569 43.3371C75.5296 43.3371 75.4023 43.2944 75.275 43.209C74.5112 42.8247 74.1717 42.1843 74.2142 41.373V41.3303L74.2566 41.2876C74.2566 41.2876 74.2566 41.2449 74.299 41.2449C74.3839 41.1169 74.4688 40.9034 74.6809 40.8607C74.9355 40.7753 75.3174 40.8607 75.5296 40.9888C75.7417 41.1169 75.9115 41.373 75.9963 41.6292C76.1236 42.0135 76.2085 42.3978 76.2085 42.7393C76.2085 42.9528 76.1236 43.1236 75.9963 43.209C75.869 43.3371 75.7842 43.3371 75.6569 43.3371ZM74.4263 41.4584C74.3839 42.1843 74.7234 42.6966 75.3598 43.0382C75.5296 43.1236 75.6993 43.1663 75.7842 43.0809C75.869 43.0382 75.9115 42.9101 75.869 42.8247C75.869 42.5258 75.7842 42.1843 75.6569 41.8C75.6144 41.6292 75.4871 41.4157 75.275 41.2876C75.1052 41.1596 74.7658 41.1169 74.6385 41.1596C74.5536 41.2022 74.4688 41.3303 74.4263 41.4157C74.4688 41.4157 74.4688 41.4584 74.4263 41.4584Z" fill="#353030"/>
<path d="M80.4517 54.7798C80.1547 55.1641 79.6455 55.2494 79.1363 55.2494C79.306 54.1393 80.0274 53.6697 80.7912 52.9865C81.0458 53.2427 81.1306 53.9259 80.4517 54.7798ZM49.561 54.2247C49.3488 54.3528 49.1366 54.4809 48.882 54.5663C48.7972 54.609 48.6699 54.5236 48.7123 54.4382C48.7972 54.182 48.882 54.0112 49.0093 53.7978C50.1126 51.7056 52.4888 49.4854 54.568 48.0337C54.8226 47.8629 55.162 47.7348 55.5015 47.6067C55.6288 47.5641 55.8409 47.5641 55.9258 47.6494C56.0107 47.7775 56.0107 47.9483 55.9682 48.0764C55.8409 48.2899 55.5863 48.7596 55.459 48.9303C53.9315 50.7663 51.5553 52.7303 49.561 54.2247ZM89.4898 48.4607C88.8533 48.5461 84.9495 49.3146 81.5549 51.236C81.3004 50.8517 80.1971 49.6562 79.5182 47.4787C79.4333 47.0944 79.1363 47.009 78.7968 47.1798C78.5847 47.2652 73.8747 51.3641 71.9228 53.0292C71.7106 53.2 71.4136 53.4135 71.2439 53.5416C70.8196 53.8405 70.7771 53.3708 70.862 53.0719C71.2439 51.6629 72.0077 50.4247 72.9412 49.2719C73.3655 48.7169 73.8323 48.2472 74.2566 47.6921C74.596 47.2225 74.6385 46.7528 74.3414 46.4112C74.002 45.9843 73.5352 46.1124 73.1109 46.4966C72.8987 46.7101 72.6866 46.9236 72.432 47.0944C71.2015 48.1191 70.0558 49.1865 68.8252 50.2112C67.7644 51.1079 66.7461 52.0472 65.6428 52.9011C65.1336 53.2854 63.8182 54.5236 63.2242 54.2247C62.7574 53.9685 63.5212 53.0719 63.7758 52.773C65.0488 51.0652 66.5339 49.5708 68.019 47.991C68.3161 47.6921 68.5706 47.3506 68.7828 47.009C69.0798 46.5393 68.995 46.2405 68.6555 45.8135C68.3161 45.4292 68.019 45.3865 67.3825 45.5573C66.5339 45.8135 65.7277 46.1124 64.9215 46.4112C64.4123 46.582 63.988 46.7528 63.4788 46.3685C63.1393 46.1124 62.8423 46.2405 62.5877 46.5393C62.1209 47.2652 61.6542 47.9483 61.145 48.6315C59.575 50.6809 57.9201 52.6876 55.6712 54.2674C55.4166 54.4382 55.2469 54.6944 54.7377 54.6517C54.7801 54.2674 54.7801 53.8832 54.865 53.4989C55.162 52.0045 56.6896 50.1258 57.7504 48.9303C58.5142 48.1191 58.2596 47.436 57.1139 47.0944C56.9866 47.0517 56.8593 47.009 56.7745 46.9663C55.7561 46.2405 54.9923 46.1978 53.8891 46.7955C52.2766 47.6921 50.2823 49.4427 49.1366 50.7236C48.2455 51.7483 47.5242 52.8584 47.1423 54.0966C46.9301 54.8225 47.2696 55.591 47.9061 55.9753C48.585 56.3596 49.1791 56.3169 50.0277 55.7618C50.5793 55.3775 51.0885 54.9506 51.5977 54.5663C51.9796 54.2674 52.3615 53.9685 52.8282 53.627C52.8707 53.8832 52.9131 54.0539 52.9555 54.2247C53.0404 54.5236 53.1253 54.8652 53.2526 55.1641C53.8891 56.4023 55.2045 56.7011 56.435 55.8472C57.9201 54.7798 59.278 53.5843 60.3812 52.218C61.3147 51.0225 62.2482 49.827 63.2242 48.6315C63.3515 48.5034 63.5212 48.2899 63.6909 48.2899C64.1577 48.2045 65.1336 48.0337 65.7701 47.991C65.3458 48.4607 65.0488 48.845 64.7093 49.1865C63.4788 50.5528 61.9088 52.1326 61.145 53.7551C60.848 54.3955 60.8904 55.036 61.2298 55.6337C61.6542 56.3169 62.715 56.445 63.5636 56.018C65.3882 55.1641 67.0855 53.7978 68.1463 52.9438C68.2736 52.8157 68.995 52.3034 69.1647 52.218C69.3344 52.0899 69.292 52.3461 69.292 52.2607C69.3344 52.0472 69.0374 52.773 68.995 52.9865C68.9101 53.4135 68.7828 53.8405 68.6979 54.2674C68.6131 54.7798 68.6131 55.4629 69.0374 55.8045C69.3769 56.1034 70.1831 56.3169 70.8196 55.9753C71.0742 55.8472 71.3288 55.6764 71.5409 55.5056C75.0204 52.5596 76.9298 50.7236 78.2877 49.6989C79.6031 51.4068 80.4941 51.7483 79.9001 52.2607C79.6031 52.5169 79.3909 52.6876 78.9666 53.0292C78.4574 53.4989 77.9482 53.9685 77.736 54.609C77.6512 54.9079 77.5663 55.2494 77.6512 55.5483C77.736 55.8472 78.0755 56.2315 78.415 56.3169C79.3909 56.5303 80.4093 56.3596 81.2155 55.6337C82.9552 54.0539 81.9368 52.7303 81.8095 52.218C82.2339 52.0045 84.6949 50.382 88.5139 49.827C89.4898 49.6989 89.702 49.0584 89.702 48.8876C89.9141 48.5461 89.7444 48.418 89.4898 48.4607Z" fill="#353030"/>
</g>
<defs>
<clipPath id="clip0">
<rect width="127" height="57" fill="white"/>
</clipPath>
</defs>
</svg>
